<?xml version="1.0" encoding="UTF-8"?>
<svg width="440px" height="128px" viewBox="0 0 440 128" version="1.1" xmlns="http://www.w3.org/2000/svg" xmlns:xlink="http://www.w3.org/1999/xlink">
    <!-- Generator: Sketch 57.1 (83088) - https://sketch.com -->
    <title>mixlife</title>
    <desc>Created with Sketch.</desc>
    <defs>
        <linearGradient x1="94.218898%" y1="94.819599%" x2="1.27053598%" y2="1.1032318%" id="linearGradient-1">
            <stop stop-color="#EA00FF" offset="13%"></stop>
            <stop stop-color="#00BC9A" offset="67.7%"></stop>
        </linearGradient>
        <linearGradient x1="97.5071339%" y1="2.93647948%" x2="-2.47637006%" y2="103.594824%" id="linearGradient-2">
            <stop stop-color="#EA00FF" offset="12.5%"></stop>
            <stop stop-color="#91C74F" offset="62.5%"></stop>
        </linearGradient>
        <linearGradient x1="98.723807%" y1="1.91612531%" x2="4.59560024%" y2="95.98128%" id="linearGradient-3">
            <stop stop-color="#FFB500" offset="23.5%"></stop>
            <stop stop-color="#EA00FF" offset="90%"></stop>
        </linearGradient>
        <linearGradient x1="68.3554375%" y1="62.9775592%" x2="-1.54885016%" y2="2.57303847%" id="linearGradient-4">
            <stop stop-color="#FF5D29" offset="0%"></stop>
            <stop stop-color="#EA00FF" offset="75%"></stop>
        </linearGradient>
    </defs>
    <g id="Page-1" stroke="none" stroke-width="1" fill="none" fill-rule="evenodd">
        <g id="mixlife" fill-rule="nonzero">
            <path d="M64,112.564 C60.9503335,112.57126 57.9621918,111.706254 55.388,110.071 C52.8198486,108.440473 50.7740725,106.106608 49.494,103.347 C46.8836565,97.717761 47.8141726,91.0812797 51.872,86.387 C46.7825702,91.0721383 40.2443645,93.8765451 33.342,94.335 L33.342,96.69 C33.2359844,100.764108 33.9508385,104.817895 35.444,108.61 C36.9391967,112.406917 39.1811208,115.865186 42.037,118.78 C44.8992177,121.70039 48.3161019,124.019451 52.087,125.601 C59.7141345,128.800068 68.3068655,128.800068 75.934,125.601 C79.7041971,124.019243 83.1203871,121.700191 85.982,118.78 C88.8383873,115.865395 91.0806762,112.407088 92.576,108.61 C94.0696085,104.817995 94.7848069,100.764184 94.679,96.69 L94.679,94.212 C87.78905,93.7997836 81.2485742,91.03832 76.148,86.388 C78.1320089,88.6867941 79.4123217,91.5081341 79.836,94.515 C80.2583428,97.5199743 79.8052436,100.582994 78.531,103.337 C77.2533647,106.096257 75.2104472,108.430722 72.645,110.063 C70.0738187,111.699298 67.0886932,112.56701 64.041,112.564" id="Path" fill="#91C74F"></path>
            <path d="M64.093,15.456 C67.139,15.457 70.12,16.326 72.685,17.961 C75.2464401,19.5921653 77.2864001,21.9236474 78.563,24.679 C79.8365879,27.4289474 80.2913735,30.487467 79.873,33.489 C79.4528803,36.4928442 78.1778914,39.3125378 76.2,41.612 C81.3024073,36.9464753 87.8338395,34.1454774 94.731,33.665 L94.731,31.31 C94.836889,27.2358102 94.1216877,23.1819826 92.628,19.39 C91.1326762,15.5929121 88.8903873,12.1346048 86.034,9.22 C83.1724519,6.29998198 79.7562281,3.98124729 75.986,2.4 C68.3587789,-0.800360712 59.7652211,-0.800360712 52.138,2.4 C48.3677848,3.98127106 44.9515655,6.30000273 42.09,9.22 C39.2338043,12.1347582 36.991542,15.5930244 35.496,19.39 C34.0024443,23.1820198 33.2872478,27.2358204 33.393,31.31 L33.393,33.583 C40.3020953,34.0799125 46.8368288,36.9115951 51.924,41.613 C49.4567535,38.7709391 48.0969391,35.1345896 48.094,31.371 C48.088741,29.2788027 48.4990089,27.206389 49.301,25.274 C50.1041085,23.3390236 51.2824382,21.582235 52.768,20.105 C54.2564971,18.6252705 56.0221781,17.4535869 57.964,16.657 C59.9085667,15.8590379 61.991084,15.4513008 64.093,15.457 L64.093,15.456 Z" id="Path" fill="#FFB500"></path>
            <path d="M112.879,63.999 C112.882,67.03 112.011,69.999 110.369,72.553 C108.724259,75.1104304 106.38111,77.1429874 103.617,78.41 C97.965537,81.0010139 91.3250611,80.08596 86.585,76.063 C91.2118797,81.1363866 93.9593181,87.6428459 94.369,94.497 L96.942,94.497 C101.035278,94.6032882 105.108671,93.8924332 108.924,92.406 C112.734869,90.9220444 116.210887,88.6917355 119.148,85.846 C122.078647,83.0058779 124.409947,79.6068579 126.004,75.85 C129.219272,68.2691672 129.219272,59.7078328 126.004,52.127 C124.410088,48.3697719 122.078778,44.9703981 119.148,42.13 C116.210853,39.2843068 112.734844,37.0540037 108.924,35.57 C105.108486,34.0843225 101.035179,33.3738225 96.942,33.48 L94.657,33.48 C94.1515717,40.3664599 91.3028403,46.8720985 86.585,51.914 C89.4522779,49.4558704 93.1042708,48.1044628 96.881,48.104 C101.101396,48.1078205 105.149311,49.779176 108.143,52.754 C111.128125,55.7190555 112.809961,59.7505691 112.817,63.958" id="Path" fill="#FF5D29"></path>
            <path d="M15.179,63.918 C15.1864729,59.7072218 16.8709627,55.6728667 19.86,52.707 C22.8585548,49.7318766 26.9119395,48.0632165 31.136,48.065 C34.9117533,48.0692225 38.5621707,49.4201783 41.431,51.875 C36.7528642,46.8148325 33.9354977,40.3136242 33.442,33.44 C32.66,33.44 31.877,33.3379972 31.095,33.3379972 C22.9669792,33.3345605 15.1679797,36.5482818 9.402,42.277 C3.65383982,47.9876212 0.419731712,55.7543754 0.416,63.857 C0.419731712,71.9596246 3.65383982,79.7263788 9.402,85.437 C15.1679797,91.1657182 22.9669792,94.3794395 31.095,94.3760028 L33.36,94.3760028 C33.8700681,87.4908855 36.7177544,80.9868278 41.431,75.942 C38.5735744,78.4185365 34.9172787,79.7787709 31.136,79.772 C26.9100258,79.7681507 22.8567505,78.0946515 19.859,75.116 C16.8703873,72.1470635 15.1864452,68.1106398 15.179,63.898" id="Path" fill="#00BC9A"></path>
            <path d="M64.071,53.656 L51.985,41.571 C46.8976888,36.8699594 40.3629703,34.0386359 33.454,33.542 C33.9927057,40.4199736 36.8364259,46.9149727 41.525,51.976 C41.813,52.222 53.653,64.02 53.653,64.02 L63.948,64.02 L64.071,53.656 L64.071,53.656 Z" id="Path" fill="url(#linearGradient-1)"></path>
            <path d="M53.66,63.715 L53.66,63.94 C53.66,63.94 41.657,75.84 41.492,75.964 C36.7787544,81.0088278 33.9310681,87.5128855 33.421,94.398 C40.3219945,93.8857475 46.8494251,91.0644744 51.951,86.389 C52.199,86.103 64.058,74.305 64.058,74.305 L64.058,63.838 L53.661,63.715 L53.66,63.715 Z" id="Path" fill="url(#linearGradient-2)"></path>
            <path d="M74.396,64 L86.565,51.977 C91.2826839,46.9346955 94.1310709,40.4286844 94.636,33.542 C87.7376136,34.066823 81.213703,36.8867746 76.105,41.552 C75.858,41.838 63.998,53.636 63.998,53.636 L63.998,63.877 L74.396,64 Z" id="Path" fill="url(#linearGradient-3)"></path>
            <path d="M86.532,76 C86.244,75.755 74.178,63.711 74.178,63.711 L64.007,63.711 L64.007,74.281 L76.093,86.365 C81.1736139,91.0792942 87.7108286,93.9187546 94.624,94.414 C94.0911856,87.538617 91.2549893,81.0439038 86.574,75.98" id="Path" fill="url(#linearGradient-4)"></path>
            <polygon id="Path" fill="#FFFFFF" points="150.708 91.159 162.644 91.159 168.792 53.996 184.254 91.159 188.232 91.159 204.417 53.996 209.842 91.159 221.778 91.159 211.651 30.849 203.151 30.849 186.424 69.187 170.42 30.849 161.92 30.849 150.708 91.159"></polygon>
            <path d="M232.639,52.007 L232.639,91.159 L243.67,91.159 L243.67,52.007 L232.639,52.007 Z M231.554,35.46 C231.554,39.077 234.538,42.06 238.154,42.06 C241.771,42.06 244.755,39.077 244.755,35.46 C244.755,31.843 241.771,28.86 238.154,28.86 C234.538,28.86 231.554,31.843 231.554,35.46 Z" id="Shape" fill="#FFFFFF"></path>
            <polygon id="Path" fill="#FFFFFF" points="250.929 91.159 265.034 91.159 276.427 77.505 287.639 91.159 301.745 91.159 283.209 69.819 298.489 52.007 284.565 52.007 276.427 62.134 268.47 52.007 254.546 52.007 269.555 69.82 250.929 91.159"></polygon>
            <polygon id="Path" fill="#FFFFFF" points="310.642 30.849 310.642 91.159 341.023 91.159 341.023 81.03 322.397 81.03 322.397 30.85 310.642 30.85"></polygon>
            <path d="M349.322,52.007 L349.322,91.159 L360.353,91.159 L360.353,52.007 L349.322,52.007 Z M348.237,35.46 C348.237,39.077 351.221,42.06 354.838,42.06 C358.454,42.06 361.438,39.077 361.438,35.46 C361.438,31.843 358.454,28.86 354.838,28.86 C351.221,28.86 348.237,31.843 348.237,35.46 Z" id="Shape" fill="#FFFFFF"></path>
            <path d="M394.015,61.41 L394.015,52.007 L383.888,52.007 L383.888,42.694 C383.888,39.439 384.087,37.134 385.063,35.912 C387.685,32.628 392.054,33.939 394.015,34.712 L394.015,25.235 C392.571,24.576 390.127,24.158 387.685,24.158 C383.616,24.158 380.361,25.424 378.01,27.413 C373.128,31.482 372.857,37.63 372.857,41.247 L372.857,52.007 L368.697,52.007 L368.697,61.411 L372.857,61.411 L372.857,91.159 L383.888,91.159 L383.888,61.41 L394.015,61.41 Z" id="Path" fill="#FFFFFF"></path>
            <path d="M429.187,78.59 C427.379,81.755 424.214,83.744 420.055,83.744 C415.805,83.744 413.364,81.664 412.188,80.037 C410.922,78.319 410.289,75.787 410.289,73.437 L439.585,73.437 L439.585,72.532 C439.585,68.282 439.043,62.134 434.884,57.161 C432.171,53.906 427.56,50.741 419.603,50.741 C414.901,50.741 409.476,51.736 404.864,56.257 C402.061,59.06 398.897,63.852 398.897,71.627 C398.897,77.777 400.705,82.84 405.045,86.909 C408.933,90.616 413.725,92.424 420.055,92.424 C433.708,92.424 438.139,83.111 439.314,80.218 L429.187,78.59 L429.187,78.59 Z M410.651,66.384 C411.555,61.139 415.805,58.517 419.874,58.517 C423.943,58.517 428.283,61.049 429.187,66.384 L410.651,66.384 Z" id="Shape" fill="#FFFFFF"></path>
        </g>
    </g>
</svg>