<?xml version="1.0" standalone="no"?>
<!DOCTYPE svg PUBLIC "-//W3C//DTD SVG 20010904//EN"
 "http://www.w3.org/TR/2001/REC-SVG-20010904/DTD/svg10.dtd">
<svg version="1.0" xmlns="http://www.w3.org/2000/svg"
 width="1184.000000pt" height="1184.000000pt" viewBox="0 0 1184.000000 1184.000000"
 preserveAspectRatio="xMidYMid meet">
<metadata>
Created by potrace 1.14, written by Peter Selinger 2001-2017
</metadata>
<g transform="translate(0.000000,1184.000000) scale(0.100000,-0.100000)"
fill="#000000" stroke="none">
<path d="M2281 9984 c-1 -12 -10 -49 -21 -83 -11 -34 -19 -65 -18 -69 1 -4 -1
-14 -5 -22 -8 -22 -27 -84 -32 -106 -5 -25 -81 -297 -97 -349 -7 -22 -13 -42
-14 -45 -2 -12 -17 -70 -36 -134 -11 -38 -21 -76 -23 -85 -9 -38 -67 -247 -72
-261 -8 -20 -11 -30 -18 -62 -3 -15 -10 -39 -15 -53 -5 -14 -7 -25 -5 -25 3 0
-2 -17 -10 -37 -12 -32 -70 -236 -80 -283 -2 -8 -9 -33 -17 -54 -13 -38 -26
-46 -100 -64 -5 -1 -10 -3 -13 -3 -3 -1 -9 -3 -15 -4 -5 -1 -11 -3 -12 -5 -2
-1 -10 -3 -18 -5 -8 -2 -64 -17 -125 -35 -60 -17 -119 -33 -130 -35 -11 -3
-49 -14 -85 -24 -91 -28 -210 -62 -229 -66 -42 -10 -138 -37 -151 -42 -19 -8
-26 -10 -75 -23 -56 -15 -60 -16 -160 -45 -49 -15 -106 -30 -125 -35 -19 -4
-47 -12 -62 -18 -16 -7 -28 -10 -28 -7 0 2 -16 -3 -35 -11 -19 -8 -35 -12 -35
-9 0 3 -8 1 -18 -4 -11 -6 -30 -12 -43 -15 -13 -3 -55 -14 -94 -26 -38 -12
-83 -24 -100 -27 -72 -12 -65 -21 40 -49 27 -7 294 -84 323 -93 18 -5 33 -10
35 -10 1 0 9 -2 17 -4 8 -3 35 -10 60 -17 25 -7 52 -15 60 -18 20 -7 20 -7 60
-16 19 -4 46 -11 60 -16 14 -5 52 -16 85 -25 66 -19 126 -36 315 -91 69 -20
132 -37 140 -39 8 -1 22 -5 30 -7 16 -6 99 -30 115 -34 10 -2 252 -70 287 -80
15 -4 35 -50 43 -99 1 -5 3 -13 5 -17 1 -5 4 -12 5 -18 1 -5 3 -11 5 -12 1 -2
3 -10 5 -18 1 -8 10 -42 19 -75 18 -64 44 -159 51 -188 2 -10 9 -32 14 -50 26
-80 41 -135 46 -167 3 -19 11 -40 17 -47 6 -7 8 -13 5 -13 -3 0 2 -21 10 -47
8 -27 16 -56 18 -66 4 -18 53 -200 62 -227 2 -8 5 -17 5 -20 0 -3 4 -15 9 -28
5 -12 11 -33 14 -45 6 -31 51 -189 58 -207 3 -8 8 -26 10 -40 3 -14 15 -59 27
-100 11 -41 23 -82 25 -90 2 -8 4 -16 5 -17 3 -3 2 -1 20 -76 7 -32 16 -54 20
-50 6 7 26 71 35 112 2 9 13 50 25 91 12 41 28 98 35 125 8 28 23 84 35 125
12 41 23 82 25 90 10 39 57 207 62 220 3 8 7 20 8 25 2 6 13 46 25 90 12 44
23 87 25 95 2 8 4 15 5 15 1 0 3 7 5 15 1 8 17 67 35 130 17 63 38 138 45 165
7 28 25 91 40 140 14 50 28 99 30 110 8 37 44 158 48 162 3 2 13 6 23 8 11 3
60 17 109 31 50 14 113 32 140 39 28 7 82 23 120 34 39 12 79 23 90 25 11 3
45 12 75 22 30 10 60 18 65 20 24 5 243 66 265 75 14 5 34 10 45 12 11 2 27 7
35 10 14 5 119 35 150 43 8 2 56 15 105 29 50 15 124 36 165 47 41 11 82 22
90 25 8 3 21 7 28 9 7 1 36 10 65 19 28 9 61 18 72 20 11 2 22 4 25 5 3 1 9 2
13 1 5 -1 7 4 5 11 -3 7 -20 16 -39 20 -19 5 -41 12 -49 15 -8 3 -22 7 -30 8
-13 1 -94 24 -520 147 -58 16 -109 31 -115 32 -5 2 -23 6 -40 10 -16 4 -39 11
-50 16 -11 5 -31 11 -45 13 -23 5 -197 52 -228 62 -7 3 -14 5 -17 5 -3 1 -19
6 -37 11 -65 20 -348 101 -398 114 -8 2 -16 4 -17 5 -4 3 -12 5 -56 14 -21 5
-41 16 -46 25 -9 17 -50 154 -56 186 -1 11 -10 42 -19 69 -8 27 -13 53 -10 58
3 4 1 8 -4 8 -5 0 -9 6 -9 13 -1 6 -13 51 -26 100 -14 48 -26 90 -26 92 -1 3
-3 10 -5 17 -2 7 -9 31 -14 53 -6 22 -15 51 -19 65 -4 14 -8 30 -9 35 -1 6
-11 42 -23 81 -11 39 -21 79 -21 88 0 9 -4 16 -8 16 -4 0 -8 8 -8 18 -1 9 -9
44 -18 77 -10 33 -19 67 -21 75 -2 8 -11 40 -20 70 -9 30 -18 63 -20 74 -2 10
-12 44 -21 75 -9 31 -18 63 -19 71 -7 28 -66 235 -72 250 -3 8 -7 24 -8 35 -2
12 -10 36 -18 55 -12 27 -16 30 -16 14z"/>
<path d="M8165 9794 c-4 -16 -9 -36 -12 -44 -3 -8 -8 -24 -10 -35 -2 -11 -8
-31 -13 -45 -6 -14 -13 -36 -16 -50 -8 -40 -12 -55 -14 -55 -1 0 -3 -7 -5 -15
-2 -8 -7 -26 -10 -40 -3 -14 -8 -32 -10 -40 -2 -8 -4 -15 -5 -15 -1 0 -3 -7
-5 -15 -2 -8 -13 -49 -25 -90 -22 -79 -30 -109 -33 -125 -2 -5 -6 -16 -10 -22
-5 -7 -6 -13 -3 -13 3 0 -4 -25 -14 -56 -11 -30 -19 -59 -18 -62 1 -4 -8 -40
-21 -80 -12 -41 -23 -82 -24 -93 -1 -10 -4 -19 -7 -19 -4 0 -7 -6 -7 -12 0 -7
-26 -105 -58 -218 -31 -113 -63 -227 -70 -255 -26 -97 -105 -381 -125 -445
-10 -36 -22 -76 -24 -90 -3 -14 -55 -203 -116 -420 -61 -217 -112 -402 -114
-410 -2 -8 -6 -22 -9 -30 -3 -8 -7 -24 -9 -35 -2 -13 -17 -23 -48 -32 -25 -7
-51 -15 -58 -18 -7 -2 -14 -5 -17 -5 -3 0 -23 -7 -45 -15 -22 -8 -44 -15 -48
-15 -4 0 -25 -6 -47 -12 -22 -6 -44 -12 -50 -13 -5 -1 -12 -3 -15 -4 -3 -2
-12 -4 -20 -6 -8 -2 -64 -17 -125 -35 -60 -17 -135 -38 -165 -47 -30 -8 -75
-21 -99 -29 -24 -8 -46 -12 -49 -9 -3 2 -10 1 -16 -4 -7 -6 -23 -12 -36 -15
-14 -2 -79 -21 -145 -40 -66 -20 -129 -38 -140 -40 -11 -2 -32 -9 -47 -15 -16
-6 -28 -8 -28 -5 0 2 -8 0 -18 -5 -11 -6 -32 -13 -48 -16 -34 -7 -43 -10 -64
-18 -12 -5 -68 -21 -112 -33 -5 -1 -11 -3 -15 -4 -5 -1 -12 -3 -18 -5 -5 -1
-12 -3 -15 -4 -3 -2 -12 -4 -20 -6 -22 -4 -242 -66 -260 -72 -8 -4 -22 -7 -30
-9 -8 -2 -37 -10 -65 -18 -27 -8 -115 -34 -195 -56 -80 -23 -176 -51 -215 -62
-38 -11 -77 -21 -85 -23 -8 -2 -26 -8 -40 -13 -14 -5 -28 -10 -32 -11 -5 0 -9
-1 -10 -2 -2 0 -10 -2 -19 -4 -9 -1 -90 -24 -180 -50 -90 -26 -172 -49 -183
-51 -10 -2 -21 -6 -24 -8 -5 -5 37 -24 67 -30 9 -2 23 -6 31 -9 8 -3 29 -9 45
-13 17 -4 35 -8 40 -10 78 -23 123 -35 136 -39 31 -7 104 -27 119 -33 8 -3 20
-7 25 -7 6 -1 17 -5 25 -8 8 -3 92 -27 185 -52 94 -26 177 -50 185 -53 8 -3
17 -6 20 -6 20 -5 108 -29 120 -33 8 -4 20 -7 25 -8 6 -2 36 -10 69 -20 32 -9
64 -18 70 -19 6 -2 31 -9 56 -16 25 -8 48 -14 53 -16 4 -1 8 -2 10 -3 1 -2 13
-5 27 -8 30 -6 41 -8 60 -15 32 -12 127 -39 155 -44 15 -3 35 -9 44 -13 9 -5
30 -11 48 -14 17 -3 37 -8 42 -12 6 -3 19 -8 28 -10 18 -3 128 -35 191 -54 17
-5 32 -7 32 -4 0 3 6 1 13 -5 7 -6 24 -13 37 -15 14 -2 32 -7 40 -10 8 -4 26
-8 40 -11 14 -3 50 -12 80 -22 30 -10 60 -18 65 -20 6 -1 30 -7 55 -15 25 -7
50 -13 55 -15 6 -1 84 -23 175 -49 91 -26 172 -48 180 -50 8 -2 15 -4 15 -5 0
-1 7 -3 15 -5 60 -14 153 -44 160 -51 7 -8 21 -58 64 -229 2 -5 6 -17 9 -25 3
-8 13 -40 21 -70 8 -30 24 -89 35 -130 23 -83 50 -179 87 -315 14 -49 32 -115
40 -145 9 -30 20 -70 25 -87 5 -18 14 -50 19 -70 6 -21 13 -49 16 -62 3 -14 7
-28 10 -32 9 -15 42 -149 37 -149 -3 0 -1 -6 4 -12 8 -11 23 -59 39 -130 1 -5
3 -10 4 -13 3 -6 3 -6 14 -55 5 -19 11 -39 14 -45 4 -5 7 -16 8 -22 3 -16 84
-314 91 -333 4 -8 7 -19 8 -25 1 -5 3 -12 4 -15 2 -3 4 -12 6 -20 1 -8 19 -73
40 -145 20 -71 38 -137 40 -145 2 -8 4 -15 5 -15 1 0 3 -8 5 -17 2 -9 12 -50
24 -90 34 -120 73 -262 75 -273 2 -5 8 -30 15 -55 8 -25 15 -52 16 -60 2 -8 4
-15 5 -15 1 0 3 -7 5 -15 2 -8 7 -26 12 -39 9 -22 11 -20 22 25 8 27 22 78 33
114 11 36 21 73 23 84 3 10 12 44 21 75 9 31 17 61 18 66 2 6 8 30 15 55 7 25
15 52 17 60 2 8 22 80 44 160 23 80 55 192 70 250 16 58 41 148 56 200 14 52
27 102 29 110 2 8 4 15 5 15 1 0 3 7 5 15 4 18 20 78 70 255 20 72 38 137 40
145 2 8 14 49 25 90 12 41 23 82 25 90 2 8 16 58 31 110 14 52 28 103 29 113
2 9 7 22 10 27 6 9 9 22 21 78 2 13 11 42 19 65 13 40 71 251 80 292 3 11 14
49 24 85 11 36 27 92 36 125 9 33 18 69 21 80 3 11 8 32 11 46 4 22 15 28 96
53 51 15 101 29 112 31 11 2 21 4 23 5 2 3 6 4 47 14 17 4 37 10 45 13 18 7
29 10 55 17 11 2 76 21 145 41 115 33 136 39 180 50 8 2 15 4 15 5 0 1 7 3 15
5 8 1 35 9 60 16 25 7 48 13 53 15 4 1 8 2 10 4 1 1 9 3 17 5 17 4 106 28 162
45 21 6 39 10 40 10 2 -1 17 4 33 10 17 7 38 13 49 16 10 2 44 11 75 20 31 9
63 18 71 19 8 2 16 4 18 5 1 2 7 4 12 5 6 1 13 4 18 5 4 1 12 3 17 4 19 3 100
27 125 36 14 6 34 11 45 13 11 2 54 14 95 26 41 13 84 25 96 27 11 2 40 11 64
19 23 8 46 13 50 10 5 -3 11 -1 14 4 3 5 23 12 43 16 21 4 42 10 48 13 5 4 15
7 20 8 6 1 36 9 68 18 31 9 83 23 115 32 31 9 62 17 67 18 6 2 42 12 80 24 39
12 95 28 125 36 91 24 372 105 410 118 l35 11 -85 24 c-47 12 -95 25 -107 27
-13 3 -26 7 -31 10 -4 2 -41 14 -82 25 -99 26 -345 96 -445 126 -65 19 -203
58 -250 69 -5 2 -17 6 -25 9 -8 4 -24 8 -35 10 -11 2 -27 6 -35 9 -8 3 -33 11
-55 16 -22 6 -51 14 -65 18 -14 4 -27 7 -30 7 -3 0 -30 8 -60 19 -30 10 -56
18 -57 18 -2 0 -4 0 -5 1 -2 0 -10 2 -18 4 -8 2 -40 11 -70 20 -53 15 -190 53
-220 61 -8 2 -53 15 -100 29 -47 15 -98 29 -115 32 -16 3 -36 10 -42 15 -7 6
-13 8 -13 5 0 -4 -18 0 -40 8 -22 8 -40 12 -40 8 0 -3 -7 0 -15 7 -8 7 -15 9
-15 6 0 -4 -8 -2 -18 3 -11 6 -30 12 -43 15 -13 3 -40 10 -59 15 -77 21 -178
50 -230 66 -30 9 -66 18 -80 21 -14 3 -32 8 -40 11 -8 3 -19 7 -25 8 -5 2 -30
8 -55 16 -25 7 -49 14 -55 15 -5 2 -35 10 -65 19 -30 9 -70 20 -89 25 -18 5
-37 12 -41 17 -4 4 -17 46 -29 93 -12 47 -25 92 -28 100 -3 8 -7 21 -9 29 -1
8 -6 26 -10 40 -4 14 -8 29 -9 34 -2 4 -3 8 -5 10 -2 2 -5 16 -14 53 -2 12
-14 52 -25 90 -11 38 -22 78 -24 89 -2 11 -6 27 -9 35 -8 20 -21 69 -69 245
-22 83 -44 160 -50 173 -5 13 -9 33 -9 45 0 13 -4 27 -9 33 -5 5 -14 32 -20
59 -6 28 -13 57 -16 65 -2 8 -11 42 -21 75 -9 33 -19 67 -22 75 -3 8 -7 24 -9
35 -2 11 -12 50 -23 86 -11 36 -20 74 -20 83 0 9 -4 16 -8 16 -5 0 -9 13 -10
30 0 16 -4 35 -9 42 -4 7 -8 18 -9 23 -2 9 -16 61 -50 185 -9 30 -17 62 -19
70 -2 8 -11 40 -20 70 -9 30 -18 62 -20 70 -2 8 -13 49 -25 90 -37 132 -50
179 -64 233 -8 28 -19 67 -25 85 -5 17 -7 32 -4 32 3 0 0 7 -7 15 -7 8 -9 15
-6 15 4 0 2 8 -3 18 -6 11 -12 30 -14 43 -5 25 -45 173 -55 199 -5 14 -10 38
-16 67 -5 26 -15 24 -21 -3z"/>
<path d="M4033 4378 c0 -12 -27 -114 -59 -223 -8 -27 -16 -58 -19 -68 -2 -10
-7 -27 -10 -37 -3 -10 -7 -27 -9 -37 -2 -10 -11 -40 -19 -68 -17 -52 -65 -228
-118 -425 -17 -63 -35 -122 -39 -130 -4 -8 -34 -23 -66 -32 -32 -9 -59 -17
-59 -18 0 -1 -9 -3 -20 -5 -11 -2 -35 -8 -53 -13 -18 -6 -36 -12 -40 -13 -4
-1 -11 -3 -17 -5 -41 -13 -235 -66 -254 -70 -14 -3 -28 -7 -33 -10 -4 -3 -16
-7 -25 -9 -10 -2 -58 -15 -108 -29 -49 -15 -101 -29 -114 -32 -14 -3 -28 -7
-33 -10 -4 -3 -16 -7 -25 -9 -134 -33 -189 -53 -153 -55 22 -2 39 -6 102 -25
32 -9 59 -16 60 -15 2 1 21 -5 43 -13 22 -9 54 -19 70 -23 17 -4 35 -8 40 -10
34 -8 523 -147 535 -151 8 -3 20 -7 25 -8 6 -2 30 -9 55 -16 25 -7 48 -12 52
-11 11 3 30 -37 23 -48 -3 -6 -2 -10 3 -10 5 0 9 -6 9 -12 1 -7 8 -38 17 -68
96 -341 130 -464 141 -510 8 -30 19 -69 25 -85 7 -17 13 -39 15 -50 4 -20 17
-68 36 -135 6 -19 13 -50 16 -67 7 -44 20 -42 33 5 5 20 18 64 27 97 9 33 17
62 18 65 10 44 19 77 23 85 4 6 7 15 8 20 1 6 7 30 14 55 7 25 14 54 17 65 6
26 7 30 27 96 9 31 18 65 21 75 2 11 14 53 25 94 12 41 23 82 25 90 2 8 4 15
5 15 1 0 3 7 5 15 1 8 10 40 19 71 19 63 27 98 28 116 1 7 15 15 32 20 39 9
38 8 56 16 8 3 58 18 110 32 52 15 100 28 105 29 6 2 24 6 40 10 17 4 37 10
45 13 8 3 24 8 35 10 11 2 42 10 68 19 26 9 53 17 60 18 7 1 39 10 72 20 33
10 67 20 75 21 8 2 62 18 120 35 58 17 115 33 127 36 28 5 73 22 73 27 0 2 -6
4 -12 4 -7 0 -94 24 -193 52 -211 61 -198 57 -255 72 -25 6 -54 14 -65 19 -11
5 -31 11 -45 13 -26 5 -203 55 -230 65 -8 3 -24 7 -35 9 -11 2 -27 6 -35 10
-19 8 -14 7 -82 23 -47 11 -58 17 -64 39 -4 14 -8 31 -10 36 -2 6 -5 19 -8 30
-6 24 -50 179 -71 250 -9 28 -17 59 -19 70 -2 11 -14 54 -27 95 -13 41 -23 80
-24 85 0 6 -7 30 -14 55 -36 126 -89 318 -95 343 -6 27 -22 38 -23 15z"/>
</g>
</svg>
