<svg width="891" height="564" viewBox="0 0 891 564" fill="none" xmlns="http://www.w3.org/2000/svg">
<path d="M278.413 562.135L242.407 553.289L206.509 542.343L171.911 529.599L138.806 515.125L107.381 499.009L77.8086 481.329L50.2566 462.199L24.8778 441.714L1.81543 419.994" stroke="white" stroke-width="1.7673" stroke-linecap="round" stroke-linejoin="round"/>
<path d="M155.33 562.132L122.639 547.837L89.5195 530.849L58.3551 512.221L29.3192 492.058L2.57349 470.469" stroke="white" stroke-width="1.7673" stroke-linecap="round" stroke-linejoin="round"/>
<path d="M157.944 562.129L171.914 529.593L187.759 497.386L204.766 467.076L222.621 439.214L240.992 414.324L259.535 392.872L277.905 375.258L295.761 361.804L312.769 352.773L328.612 348.32L342.996 348.529" stroke="white" stroke-width="1.7673" stroke-linecap="round" stroke-linejoin="round"/>
<path d="M279.473 562.129L288.871 528.221L299.033 495.816L309.701 465.763L320.676 438.623L331.755 414.897L342.73 395.026L353.398 379.382L363.559 368.256L373.025 361.864L381.619 360.312" stroke="white" stroke-width="1.7673" stroke-linecap="round" stroke-linejoin="round"/>
<path d="M71.411 562.135L41.2374 544.097L10.8955 523.028L1.59253 515.71" stroke="white" stroke-width="1.7673" stroke-linecap="round" stroke-linejoin="round"/>
<path d="M74.4971 562.129L89.5241 530.847L107.385 499.003L127.057 468.61L148.175 440.246L170.346 414.431L193.155 391.648L216.179 372.321L238.989 356.808L261.159 345.402L282.277 338.317L301.95 335.678L314.934 342.34L331.102 343.33L336.064 345.27" stroke="white" stroke-width="1.7673" stroke-linecap="round" stroke-linejoin="round"/>
<path d="M8.17236 308.396L41.0176 292.633L74.8094 280.194L108.919 271.306L142.711 266.137L175.556 264.788L206.842 267.277L235.986 273.556L242.348 283.757L249.81 293.6L274.466 300.947L294.696 311.345L296.162 312.097L308.705 322.19L314.946 327.216L317.48 330.159L320.099 333.06" stroke="white" stroke-width="1.7673" stroke-linecap="round" stroke-linejoin="round"/>
<path d="M709.85 562.129L697.721 532.84L682.369 500.448L665.889 469.923L648.586 441.846L630.781 416.735L612.815 395.056L595.01 377.215L577.706 363.547L558.976 370.154L539.577 375.783L527.622 365.087L516.49 359.088L506.379 357.9L501.938 358.927L495.76 360.359L493.003 360.998L489.016 361.702L485.19 362.377L481.531 361.261L473.515 359.291L465.307 357.733L456.951 356.605L448.493 355.901L439.982 355.632L431.464 355.793L422.989 356.396L414.602 357.423L406.353 358.873L398.286 360.747L392.614 362.389L390.594 362.007L383.715 360.706L381.622 360.312L377.403 359.273L371.672 357.865L368.328 357.047L357.742 358.109L356.559 357.745L342.909 353.585L328.614 348.32L314.936 342.34L297.128 345.933L278.011 354.044L257.942 366.531L238.99 356.808L221.156 346.148L204.54 334.61L189.235 322.255L175.326 309.159L162.891 295.383L152.001 281.022L142.715 266.136L135.086 250.826L129.156 235.169L124.958 219.251L122.517 203.165L121.845 186.995L122.947 170.844L125.815 154.787L130.435 138.928L136.78 123.344L144.815 108.129L154.494 93.3623L165.766 79.1326L178.564 65.5178L192.818 52.5953L208.45 40.4308L225.37 29.1021L243.484 18.6626L262.692 9.17812L280.817 1.56788" stroke="white" stroke-width="1.7673" stroke-linecap="round" stroke-linejoin="round"/>
<path d="M685.078 325.32L713.155 337.24L741.495 352.938L769.566 372.128L796.856 394.457L822.85 419.496L847.065 446.792L869.049 475.824L888.393 506.056" stroke="white" stroke-width="1.7673" stroke-linecap="round" stroke-linejoin="round"/>
<path d="M1.2146 234.488L17.1669 229.648L52.9839 222.557L89.1383 219.071L124.955 219.25L159.77 223.094L192.931 230.537L223.822 241.43L251.867 255.582L275.6 272.062L276.544 272.719L278.715 280.95L281.782 289.049L299.185 304.324L300.586 305.553L301.959 306.759L311.427 318.78L313.609 321.55L318.056 327.196L321.091 333.284" stroke="white" stroke-width="1.7673" stroke-linecap="round" stroke-linejoin="round"/>
<path d="M855.044 1.5678L876.072 21.3664L888.863 24.6194" stroke="white" stroke-width="1.7673" stroke-linecap="round" stroke-linejoin="round"/>
<path d="M504.53 325.482L506.1 297.519L510.786 267.436L518.497 235.801L529.086 203.199L542.367 170.234L558.083 137.524L575.941 105.681L595.614 75.2875L616.732 46.9237L638.9 21.1026L658.466 1.56666" stroke="white" stroke-width="1.7673" stroke-linecap="round" stroke-linejoin="round"/>
<path d="M318.844 562.129L324.512 534.971L332.26 502.113L340.395 471.576L348.764 443.941L357.211 419.713L365.58 399.354L373.715 383.232L381.463 371.646" stroke="white" stroke-width="1.7673" stroke-linecap="round" stroke-linejoin="round"/>
<path d="M1.39844 22.1611L7.18819 16.0014L23.1034 1.56871" stroke="white" stroke-width="1.7673" stroke-linecap="round" stroke-linejoin="round"/>
<path d="M345.632 349.029L343.41 321.788L336.746 293.4L340.795 288.285L345.393 283.396L350.515 278.752L356.131 274.377L362.21 270.307L368.718 266.558L375.619 263.15L382.875 260.106L390.443 257.438L398.283 255.164L406.35 253.29L414.6 251.839L422.986 250.812L431.461 250.216L439.979 250.048L448.49 250.317L456.948 251.021L465.305 252.149L473.512 253.707L481.528 255.677L489.305 258.047L496.802 260.81L503.977 263.944L510.787 267.436L517.192 271.268L523.166 275.41L528.664 279.851L533.659 284.56L538.124 289.508L542.04 294.665L535.319 322.969L538.435 327.971L536.805 347.078L533.188 348.838L532.072 349.459L529.893 350.414" stroke="white" stroke-width="1.7673" stroke-linecap="round" stroke-linejoin="round"/>
<path d="M831.281 1.56764L850.137 19.3189L869.529 40.8007L888.862 43.1226" stroke="white" stroke-width="1.7673" stroke-linecap="round" stroke-linejoin="round"/>
<path d="M559.159 328.682L559.499 328.252L560.299 327.244L566.142 319.86L575.167 308.448L576.934 306.908L578.02 305.965L595.234 290.989L596.368 290.303L618.978 276.628L620.202 276.127L645.969 265.634L675.7 258.214L707.609 254.502L741.112 254.573L775.582 258.417L810.374 265.974L844.844 277.094L878.353 291.574L888.924 297.4" stroke="white" stroke-width="1.7673" stroke-linecap="round" stroke-linejoin="round"/>
<path d="M1.07959 166.605L14.4641 164.624L50.5115 163.054L86.8974 165.137L122.945 170.843L157.981 180.053L191.355 192.611L222.444 208.267L250.668 226.741" stroke="white" stroke-width="1.7673" stroke-linecap="round" stroke-linejoin="round"/>
<path d="M361.692 355.024L363.342 331.823L361.531 304.008L356.131 274.379L347.243 243.491L335.033 211.91L319.727 180.233L301.612 149.04L281.024 118.921L258.347 90.4323L234.003 64.1038L208.447 40.4315L182.153 19.851L155.613 2.75033L153.273 1.56846" stroke="white" stroke-width="1.7673" stroke-linecap="round" stroke-linejoin="round"/>
<path d="M562.101 328.377L563.946 326.903L568.195 323.495L580.241 313.849L581.745 313.091L601.71 302.968L626.111 295.919L652.989 292.851L681.836 293.806L712.122 298.778L743.285 307.671L774.746 320.319L805.91 336.483L836.195 355.864L865.049 378.104L889.013 400.206" stroke="white" stroke-width="1.7673" stroke-linecap="round" stroke-linejoin="round"/>
<path d="M357.65 562.129L360.794 539.884L366.085 506.691L371.641 475.808L377.356 447.815L383.125 423.223L388.841 402.499L394.396 386.031L399.688 374.118L404.617 366.985L409.092 364.764" stroke="white" stroke-width="1.7673" stroke-linecap="round" stroke-linejoin="round"/>
<path d="M517.414 354.695L515.832 332.765L510.383 328.975L512.096 301.101L517.193 271.269L525.591 240.046L537.129 208.005L551.591 175.75L568.71 143.876L588.162 112.982L609.59 83.6389L632.588 56.3973L656.738 31.7639L681.58 10.1986L693.542 1.56766" stroke="white" stroke-width="1.7673" stroke-linecap="round" stroke-linejoin="round"/>
<path d="M1 6.56396L6.27405 1.56805" stroke="white" stroke-width="1.7673" stroke-linecap="round" stroke-linejoin="round"/>
<path d="M510.894 562.129L508.226 540.797L503.541 507.545L498.61 476.596L493.549 448.531L488.434 423.874L483.366 403.084L478.442 386.551L473.75 374.577L469.381 367.385L465.961 365.045L465.304 357.733L463.585 336.52L463.006 311.529L463.585 283.23L465.304 252.151L468.134 218.875L472.019 184.017L476.89 148.228L482.656 112.176L489.209 76.5303L496.426 41.9529L504.173 9.09454L506.179 1.56788" stroke="white" stroke-width="1.7673" stroke-linecap="round" stroke-linejoin="round"/>
<path d="M1.2981 50.0332L12.8412 35.4991L32.8039 14.2621L46.8103 1.56641" stroke="white" stroke-width="1.7673" stroke-linecap="round" stroke-linejoin="round"/>
<path d="M199.266 562.129L206.514 542.337L220.305 509.377L235.108 478.25L250.651 449.54L266.641 423.772L282.781 401.437L298.772 382.945L314.313 368.638L329.118 358.796L342.908 353.585L355.428 353.113" stroke="white" stroke-width="1.7673" stroke-linecap="round" stroke-linejoin="round"/>
<path d="M889.156 549.058L875.153 559.951L871.9 562.129" stroke="white" stroke-width="1.7673" stroke-linecap="round" stroke-linejoin="round"/>
<path d="M390.59 362.006L393.605 341.456L394.666 316.351L393.605 288.172L390.442 257.439L385.237 224.73L378.085 190.648L369.122 155.837L358.512 120.938L346.455 86.6052L333.173 53.4782L318.915 22.1718L308.245 1.56741" stroke="white" stroke-width="1.7673" stroke-linecap="round" stroke-linejoin="round"/>
<path d="M539.575 375.784L519.609 380.41L499.19 384.009L478.442 386.552L457.468 388.032L436.392 388.438L415.328 387.77L394.396 386.033L373.716 383.233L353.399 379.383L333.56 374.513" stroke="white" stroke-width="1.7673" stroke-linecap="round" stroke-linejoin="round"/>
<path d="M489.014 361.704L486.024 342.031L484.926 316.908L486.024 288.741L489.307 258.05L494.715 225.406L502.14 191.42L511.445 156.717L522.464 121.955L534.986 87.7772L548.774 54.8114L563.583 23.684L575.55 1.56957" stroke="white" stroke-width="1.7673" stroke-linecap="round" stroke-linejoin="round"/>
<path d="M685.077 325.322L669.444 337.48L652.523 348.815L634.408 359.249L615.2 368.739L595.007 377.215L573.943 384.646L552.121 390.979L529.667 396.178L506.705 400.225L483.367 403.084L459.778 404.749L436.07 405.208L412.382 404.456L388.841 402.499L365.581 399.353L342.731 395.026L320.419 389.546L298.77 382.945L277.904 375.257L257.94 366.531" stroke="white" stroke-width="1.7673" stroke-linecap="round" stroke-linejoin="round"/>
<path d="M33.1572 562.129L41.2426 544.092L58.3594 512.218L77.8123 481.324L99.2392 451.987L122.241 424.745L146.389 400.112L171.233 378.541L196.31 360.443L221.154 346.148L245.302 335.923L268.304 329.966L289.73 328.373L309.183 331.19L322.909 336.932L323.109 337.015L323.808 337.308" stroke="white" stroke-width="1.7673" stroke-linecap="round" stroke-linejoin="round"/>
<path d="M539.577 375.783L552.123 390.98L565.034 410.384L578.064 433.645L590.974 460.331L603.521 489.931L615.476 521.906L626.608 555.659L628.482 562.129" stroke="white" stroke-width="1.7673" stroke-linecap="round" stroke-linejoin="round"/>
<path d="M888.99 85.4599L869.722 83.9259L836.876 85.2808L803.074 90.4498L768.969 99.3374L735.179 111.776L702.333 127.54L671.05 146.33L641.904 167.8L615.445 191.55L592.16 217.132L572.493 244.075L556.801 271.872L545.377 300.015L548.116 305.518L550.247 311.141L542.989 338.371L544.147 342.764" stroke="white" stroke-width="1.7673" stroke-linecap="round" stroke-linejoin="round"/>
<path d="M396.083 562.129L397.512 542.934L400.318 509.538L403.263 478.441L406.293 450.22L409.352 425.402L412.382 404.457L415.328 387.768L418.133 375.652L420.748 368.328L422.574 365.887L422.986 356.396L424.025 335.261L424.377 310.305L424.025 281.977L422.986 250.814L421.273 217.388L418.921 182.333L415.973 146.3L412.479 109.95L408.512 73.9696L404.142 39.0282L399.451 5.7759L398.781 1.56788" stroke="white" stroke-width="1.7673" stroke-linecap="round" stroke-linejoin="round"/>
<path d="M381.464 371.647L399.689 374.118L418.134 375.652L436.691 376.237L455.266 375.879L473.751 374.577L492.034 372.333" stroke="white" stroke-width="1.7673" stroke-linecap="round" stroke-linejoin="round"/>
<path d="M549.41 339.729L549.708 339.568L549.917 339.389L551.254 338.494L552.478 334.25L552.872 328.448L552.633 322.64L551.755 316.857L550.245 311.138L562.195 284.195L578.603 258.034L599.172 233.15L623.518 209.997L651.19 189.016L681.673 170.597L714.394 155.072L748.732 142.746L784.074 133.835L819.743 128.516L855.085 126.881L889.435 128.964" stroke="white" stroke-width="1.7673" stroke-linecap="round" stroke-linejoin="round"/>
<path d="M434.315 562.129L434.464 544.11L434.768 510.63L435.085 479.449L435.413 451.145L435.741 426.243L436.07 405.209L436.392 388.437L436.69 376.237L436.977 368.841L437.233 366.376" stroke="white" stroke-width="1.7673" stroke-linecap="round" stroke-linejoin="round"/>
<path d="M356.873 353.555L358.215 335.81L356.281 308.091L350.515 278.754L341.024 248.331L327.985 217.395L311.642 186.518L292.298 156.286L270.314 127.253L246.099 99.958L220.106 74.9188L192.815 52.5955L164.739 33.3998L136.399 17.7018L108.322 5.78203L93.7869 1.56801" stroke="white" stroke-width="1.7673" stroke-linecap="round" stroke-linejoin="round"/>
<path d="M889.161 405.43L870.7 425.36L847.063 446.794L821.146 466.957L793.087 485.746L763.058 503.056L731.202 518.784L697.717 532.84L662.788 545.16L626.605 555.659L598.695 562.129" stroke="white" stroke-width="1.7673" stroke-linecap="round" stroke-linejoin="round"/>
<path d="M383.712 360.705L386.529 343.95L387.756 318.786L386.529 290.661L382.874 260.106L376.855 227.684L368.589 193.996L358.226 159.681L345.96 125.366L332.021 91.6959L316.668 59.2972L300.185 28.7727L283.417 1.56675" stroke="white" stroke-width="1.7673" stroke-linecap="round" stroke-linejoin="round"/>
<path d="M667.139 1.56778L681.578 10.1987L700.093 23.0555L717.146 36.8197L732.635 51.4074L746.489 66.7533L758.617 82.7556L768.967 99.337L777.473 116.396L784.074 133.837L788.754 151.57L791.476 169.495L792.222 187.502L790.992 205.504L787.793 223.387L782.648 241.061L775.581 258.418L766.628 275.369L755.848 291.819L743.283 307.673L729.036 322.839L713.153 337.242L695.736 350.791L676.886 363.415L656.706 375.043L635.308 385.607L612.811 395.056L589.342 403.329L565.031 410.384L540.015 416.18L514.433 420.686L488.433 423.874L462.152 425.73L435.74 426.243L409.351 425.402L383.124 423.223L357.211 419.713L331.754 414.896L306.897 408.79L282.778 401.437L259.534 392.872L237.291 383.148L216.177 372.321L196.308 360.443L177.797 347.586L160.745 333.828L145.25 319.234L131.397 303.888L119.265 287.886L108.919 271.305L100.42 254.246L93.8135 236.799L89.1369 219.071L86.4169 201.147L85.6685 183.139L86.8956 165.137L90.0913 147.255L95.2382 129.581L102.308 112.224L111.259 95.2723L122.043 78.8222L134.6 62.969L148.858 47.8023L164.739 33.3995L182.153 19.8503L201.003 7.22627L210.829 1.56778" stroke="white" stroke-width="1.7673" stroke-linecap="round" stroke-linejoin="round"/>
<path d="M522.104 353.159L520.85 336.81L515.83 332.763L517.675 304.972L523.166 275.409L532.203 244.634L544.618 213.202L560.185 181.716L578.61 150.75L599.543 120.888L622.607 92.6795L647.365 66.6555L673.353 43.3055L700.094 23.0533L727.085 6.28092L736.802 1.56555" stroke="white" stroke-width="1.7673" stroke-linecap="round" stroke-linejoin="round"/>
<path d="M495.758 360.359L493.03 344.608L491.765 319.431L493.03 291.324L496.803 260.811L503.016 228.46L511.546 194.88L522.236 160.69L534.896 126.531L549.28 93.0399L565.122 60.8322L582.133 30.5165L599.986 2.66012L600.791 1.56778" stroke="white" stroke-width="1.7673" stroke-linecap="round" stroke-linejoin="round"/>
<path d="M116.569 562.129L122.642 547.834L138.809 515.119L156.617 483.777L175.734 454.38L195.803 427.491L216.45 403.598L237.292 383.148L257.94 366.531" stroke="white" stroke-width="1.7673" stroke-linecap="round" stroke-linejoin="round"/>
<path d="M554.825 335.879L555.147 335.676L555.601 335.42L555.63 335.265L555.851 334.948L556.329 334.513L561.373 329.153L561.957 328.49L567.18 321.96L568.678 320.737L571.955 318.051L586.071 306.489L591.073 298.855L595.234 290.988L598.516 282.924L600.904 274.723L602.384 266.42L602.957 258.064L627.877 238.701L656.199 222.018L687.398 208.338L720.889 197.904L756.045 190.915L792.223 187.501L828.734 187.727L864.911 191.589L888.864 196.818" stroke="white" stroke-width="1.7673" stroke-linecap="round" stroke-linejoin="round"/>
<path d="M861.656 1.56837L875.307 4.59458L888.713 17.1589" stroke="white" stroke-width="1.7673" stroke-linecap="round" stroke-linejoin="round"/>
<path d="M492.033 372.333L499.189 384.008L506.704 400.225L514.434 420.686L522.235 445.015L529.965 472.752L537.479 503.378L544.636 536.332L549.596 562.129" stroke="white" stroke-width="1.7673" stroke-linecap="round" stroke-linejoin="round"/>
<path d="M506.375 357.899L507.527 357.565L512.213 356.204L512.488 356.12L513.974 355.69" stroke="white" stroke-width="1.7673" stroke-linecap="round" stroke-linejoin="round"/>
<path d="M764.057 1.56781L774.389 9.90031L793.065 27.4964L809.766 45.9938L824.402 65.2909L836.877 85.2805L847.119 105.849L855.087 126.883L860.722 148.263L864.005 169.877L864.912 191.591L863.432 213.294L859.576 234.859L853.374 256.162L844.845 277.094L834.053 297.538L821.047 317.366L805.91 336.484L788.714 354.773L769.566 372.13L748.574 388.473L725.845 403.693L701.51 417.714L675.707 430.451L648.584 441.846L620.286 451.82L590.973 460.331L560.813 467.315L529.966 472.752L498.612 476.596L466.929 478.828L435.086 479.449L403.264 478.44L371.642 475.808L340.397 471.576L309.702 465.763L279.731 458.403L250.65 449.539L222.621 439.213L195.804 427.491L170.345 414.431L146.389 400.112L124.068 384.611L103.509 368.017L84.8253 350.421L68.1222 331.924L53.4932 312.621L41.0196 292.631L30.7717 272.063L22.8057 251.029L17.1676 229.648L13.8877 208.041L12.9846 186.327L14.4643 164.624L18.3184 143.059L24.5241 121.75L33.047 100.817L43.8404 80.3801L56.8435 60.5457L71.9828 41.4336L89.176 23.1451L108.323 5.78183L113.741 1.56781" stroke="white" stroke-width="1.7673" stroke-linecap="round" stroke-linejoin="round"/>
<path d="M328.615 339.735L328.542 339.479L328.481 339.264L325.014 327.04L325.41 321.232L326.441 315.466L328.101 309.766L330.38 304.167L333.267 298.7L321.925 270.419L306.344 242.426L286.813 215.244L263.697 189.369L237.425 165.297L208.487 143.469L177.423 124.291L144.811 108.127L111.259 95.2705L77.3908 85.9591L43.8382 80.3783L11.227 78.6235L1.26147 78.9816" stroke="white" stroke-width="1.7673" stroke-linecap="round" stroke-linejoin="round"/>
<path d="M377.401 359.272L379.749 346.797L381.134 321.567L379.749 293.513L375.619 263.15L368.823 231.056L359.487 197.821L347.783 164.062L333.93 130.416L318.187 97.5035L300.847 65.9404L282.232 36.3171L262.69 9.17692L256.352 1.56667" stroke="white" stroke-width="1.7673" stroke-linecap="round" stroke-linejoin="round"/>
<path d="M519.378 354.122L531.435 354.749L544.715 360.127L558.975 370.154L573.945 384.647L589.344 403.329L604.887 425.861L620.286 451.82L635.256 480.727L649.51 512.033L662.79 545.16L668.753 562.129" stroke="white" stroke-width="1.7673" stroke-linecap="round" stroke-linejoin="round"/>
<path d="M352.581 352.063L353.539 340.048L358.214 335.81L363.342 331.823L368.891 328.105L367.212 300.206L362.209 270.309L353.974 238.984L342.66 206.8L328.478 174.372L311.692 142.289L292.616 111.156L271.603 81.5507L249.046 54.0285L225.366 29.1027L201.003 7.227L193.438 1.56852" stroke="white" stroke-width="1.7673" stroke-linecap="round" stroke-linejoin="round"/>
<path d="M501.935 358.927L499.739 347.538L498.312 322.29L499.739 294.255L503.976 263.945L510.954 231.934L520.546 198.813L532.567 165.209L546.791 131.736L562.954 99.0205L580.765 67.6723L599.883 38.2758L619.951 11.3863L628.438 1.56762" stroke="white" stroke-width="1.7673" stroke-linecap="round" stroke-linejoin="round"/>
<path d="M549.722 339.521L552.874 328.449L556.682 320.636L565.104 303.362L565.832 302.329L581.9 279.749L602.958 258.065L602.612 249.702L601.346 241.382L626.022 219.482L654.069 199.922L684.958 183.066L718.12 169.225L752.937 158.666L788.755 151.569L824.909 148.083L860.721 148.262L889.115 151.402" stroke="white" stroke-width="1.7673" stroke-linecap="round" stroke-linejoin="round"/>
<path d="M540.041 345.126L540.721 344.81L542.47 344.159L544.326 343.055L544.756 342.41L547.549 340.805L549.412 339.73L549.71 339.569L549.841 339.551L551.107 339.032L551.465 338.644L551.787 338.142L552.718 337.516L553.542 336.638L557.78 327.518L563.522 316.171L565.527 313.527L567.485 310.943L580.109 294.272L581.404 287.031L581.9 279.75L581.595 272.462L580.497 265.209L578.605 258.035L575.931 250.974L596.106 225.051L619.993 200.669L647.127 178.292L677.025 158.326L709.113 141.154L742.813 127.091L777.474 116.395L812.457 109.268L847.118 105.848L880.812 106.194L889.27 107.275" stroke="white" stroke-width="1.7673" stroke-linecap="round" stroke-linejoin="round"/>
<path d="M440.05 366.322L439.979 355.632L439.913 334.55L439.889 309.607L439.913 281.261L439.979 250.05L440.086 216.547L440.241 181.378L440.432 145.201L440.659 108.684L440.916 72.5192L441.196 37.3689L441.501 3.88975L441.525 1.56786" stroke="white" stroke-width="1.7673" stroke-linecap="round" stroke-linejoin="round"/>
<path d="M430.967 366.179L431.463 355.793L431.952 334.706L432.113 309.756L431.952 281.416L431.463 250.217L430.657 216.726L429.553 181.588L428.174 145.44L426.532 108.959L424.676 72.8297L422.623 37.7271L420.426 4.29575L420.223 1.56799" stroke="white" stroke-width="1.7673" stroke-linecap="round" stroke-linejoin="round"/>
<path d="M449.113 366.148L448.492 355.9L447.871 334.8L447.662 309.851L447.871 281.517L448.492 250.318L449.513 216.844L450.921 181.718L452.688 145.589L454.771 109.131L457.147 73.0317L459.761 37.953L462.567 4.55746L462.847 1.56705" stroke="white" stroke-width="1.7673" stroke-linecap="round" stroke-linejoin="round"/>
<path d="M888.714 35.6622L876.072 21.3669L850.137 19.3196L822.293 21.3729L793.063 27.4969L762.993 37.5722L732.635 51.4079L702.564 68.7593L673.335 89.292L645.496 112.624L619.562 138.326L596.015 165.92L575.297 194.88L557.791 224.683L543.823 254.76L533.659 284.562L527.481 313.523L525.41 341.11L529.492 345.629L529.88 350.279L529.486 350.559" stroke="white" stroke-width="1.7673" stroke-linecap="round" stroke-linejoin="round"/>
<path d="M317.704 332.385L309.788 325.999L302.594 319.224L296.162 312.097L290.529 304.666L285.726 296.972L284.515 296.274L262.445 283.519L257.9 274.398L254.366 265.069L253.225 264.544L226.695 252.337L196.218 243.008L163.501 237.248L129.152 235.171L93.8134 236.801L58.1425 242.125L22.8035 251.03L1.26147 258.766" stroke="white" stroke-width="1.7673" stroke-linecap="round" stroke-linejoin="round"/>
<path d="M566.25 327.576L573.621 320.891L580.24 313.848L586.072 306.488L587.427 305.76L608.425 294.485L633.834 286.17L661.816 281.7L691.857 281.156L723.397 284.547L755.849 291.817L788.6 302.823L821.046 317.363L852.586 335.168L882.633 355.904L888.87 361.097" stroke="white" stroke-width="1.7673" stroke-linecap="round" stroke-linejoin="round"/>
<path d="M1.81738 419.988L27.7531 394.286L55.5946 370.954L84.8233 350.421L114.895 333.07L145.25 319.234L175.322 309.159L204.552 303.035L232.393 300.982L258.329 303.029L267.858 312.006L278.344 320.47L289.729 328.372L301.947 335.678L319.807 337.541L326.369 340.179L326.772 340.71L327.601 341.54L331.1 343.33L336.073 345.39L338.723 346.315" stroke="white" stroke-width="1.7673" stroke-linecap="round" stroke-linejoin="round"/>
<path d="M561.372 329.152L561.957 328.49L567.179 321.96L571.543 315.305L574.867 312.505L591.073 298.855L592.314 298.15L614.19 285.687L615.479 285.216L640.465 276.054L669.401 270.133L700.463 268.026L733.077 269.786L766.627 275.367L800.495 284.679L834.051 297.536L866.665 313.699L888.958 327.463" stroke="white" stroke-width="1.7673" stroke-linecap="round" stroke-linejoin="round"/>
<path d="M239.717 562.129L242.409 553.284L254.07 519.673L266.588 487.847L279.729 458.403L293.25 431.884L306.898 408.79L320.418 389.547L333.56 374.512" stroke="white" stroke-width="1.7673" stroke-linecap="round" stroke-linejoin="round"/>
<path d="M457.975 365.633L456.948 356.602L455.772 335.455L455.378 310.493L455.772 282.171L456.948 251.02L458.876 217.619L461.532 182.594L464.857 146.596L468.796 110.299L473.273 74.3729L478.203 39.4852L483.491 6.29256L484.345 1.56524" stroke="white" stroke-width="1.7673" stroke-linecap="round" stroke-linejoin="round"/>
<path d="M888.39 506.058L859.847 528.268L828.953 548.962L806.098 562.129" stroke="white" stroke-width="1.7673" stroke-linecap="round" stroke-linejoin="round"/>
<path d="M317.481 330.156L314.494 326.849L309.585 320.373L305.398 313.664L302.441 311.151L302.267 311.002L285.727 296.969L281.782 289.049L280.671 288.368L257.901 274.395L256.695 273.888L230.76 263.066L200.865 255.277L168.773 251.17L135.083 250.824L100.421 254.244L65.4321 261.371L30.7706 272.061L1.18799 284.411" stroke="white" stroke-width="1.7673" stroke-linecap="round" stroke-linejoin="round"/>
<path d="M492.999 360.998L501.099 362.652L510.028 369.164L519.608 380.409L529.666 396.178L540.016 416.18L550.461 440.043L560.811 467.315L570.868 497.499L580.448 530.023L588.811 562.129" stroke="white" stroke-width="1.7673" stroke-linecap="round" stroke-linejoin="round"/>
<path d="M720.291 1.5687L727.084 6.28406L745.897 21.4688L762.992 37.5726L778.272 54.5002L791.66 72.156L803.073 90.4504L812.456 109.27L819.744 128.519L824.907 148.085L827.909 167.86L828.733 187.73L827.378 207.588L823.85 227.321L818.174 246.821L810.373 265.975L800.494 284.682L788.598 302.827L774.745 320.321L759.011 337.052L741.492 352.941L722.273 367.893L701.477 381.824L679.208 394.651L655.601 406.308L630.777 416.736L604.884 425.862L578.06 433.645L550.46 440.044L522.234 445.016L493.548 448.532L464.551 450.579L435.412 451.146L406.291 450.221L377.355 447.815L348.763 443.942L320.675 438.623L293.249 431.885L266.638 423.773L240.99 414.324L216.449 403.598L193.152 391.649L171.23 378.541L150.805 364.359L131.991 349.175L114.895 333.071L99.61 316.143L86.2238 298.487L74.809 280.193L65.4308 261.373L58.1423 242.124L52.9822 222.558L49.9811 202.784L49.155 182.913L50.5094 163.055L54.0357 143.322L59.7139 123.822L67.5145 104.668L77.3905 85.9618L89.2894 67.8166L103.144 50.322L118.876 33.5914L136.398 17.7025L155.612 2.75057L157.38 1.5687" stroke="white" stroke-width="1.7673" stroke-linecap="round" stroke-linejoin="round"/>
<path d="M1.31055 542.419L10.8983 523.02L29.321 492.054L50.2578 462.192L73.319 433.983L98.0758 407.965L124.066 384.609L150.805 364.357L177.796 347.585L204.536 334.609L230.525 325.661L255.282 320.922L278.344 320.468L299.281 324.312L315.587 331.457L317.992 332.508L319.974 333.958" stroke="white" stroke-width="1.7673" stroke-linecap="round" stroke-linejoin="round"/>
<path d="M371.67 357.864L373.298 349.985L374.834 324.678L373.298 296.696L368.719 266.559L361.182 234.829L350.828 202.096L337.848 168.969L322.487 136.069L305.028 104.004L285.798 73.3725L265.155 44.752L243.482 18.6623L226.954 1.56762" stroke="white" stroke-width="1.7673" stroke-linecap="round" stroke-linejoin="round"/>
<path d="M321.651 334.185L320.734 333.343L319.137 331.696L315.633 327.166L309.585 320.373L305.151 316.714L290.53 304.663L289.202 303.941L267.979 292.385L242.349 283.754L214.119 278.932L183.814 278.018L151.998 281.021L119.266 287.885L86.2255 298.486L53.4925 312.62L21.6769 330.037L1.39844 343.401" stroke="white" stroke-width="1.7673" stroke-linecap="round" stroke-linejoin="round"/>
<path d="M413.421 365.121L414.602 357.421L416.19 336.226L416.721 311.24L416.19 282.936L414.602 251.838L411.99 218.526L408.4 183.627L403.901 147.778L398.576 111.655L392.523 75.9314L385.857 41.2705L378.701 8.31668L377.044 1.56591" stroke="white" stroke-width="1.7673" stroke-linecap="round" stroke-linejoin="round"/>
<path d="M889.193 457.562L869.048 475.826L841.741 497.075L812.166 516.88L780.513 535.12L746.95 551.696L722.102 562.129" stroke="white" stroke-width="1.7673" stroke-linecap="round" stroke-linejoin="round"/>
<path d="M326.949 338.74L326.606 338.478L326.079 338.257L325.915 338.191L324.561 337.624L324.112 337.439L323.957 337.069L323.578 336.388L322.404 335.648L320.672 333.798L318.057 327.197L315.697 320.965L314.027 314.632L313.056 308.234L312.789 301.799L313.227 295.371L314.368 288.984L316.206 282.675L318.73 276.474L302.723 249.286L282.659 223.112L258.91 198.437L231.922 175.726L202.193 155.39L170.281 137.824L136.778 123.344L102.309 112.224L67.5166 104.667L33.0467 100.817L1.37378 100.746" stroke="white" stroke-width="1.7673" stroke-linecap="round" stroke-linejoin="round"/>
<path d="M348.851 350.432L349.344 344.511L353.542 340.046L351.496 312.434L356.284 308.089L361.533 304.006L367.216 300.204L373.3 296.695L379.751 293.513L386.532 290.66L393.608 288.171L400.936 286.04L408.478 284.291L416.19 282.936L424.027 281.976L431.953 281.414L439.916 281.259L447.872 281.516L455.775 282.172L463.588 283.229L471.264 284.679L478.755 286.524L486.025 288.738L493.032 291.323L499.741 294.253L506.104 297.518L512.097 301.1L517.678 304.973L522.817 309.122L520.853 336.811L525.413 341.109L526.267 351.65V351.697" stroke="white" stroke-width="1.7673" stroke-linecap="round" stroke-linejoin="round"/>
<path d="M345.731 349.069L349.341 344.509L347.194 317.005L340.794 288.283L330.26 258.887L315.789 229.353L297.649 200.243L276.179 172.094L251.779 145.431L224.902 120.75L196.051 98.5164L165.762 79.1296L134.599 62.966L103.144 50.3182L71.9806 41.4306L41.6918 36.4586L12.8404 35.4975L1.26147 36.4048" stroke="white" stroke-width="1.7673" stroke-linecap="round" stroke-linejoin="round"/>
<path d="M888.683 63.5716L886.523 63.2075L869.53 40.8006L840.372 41.3975L809.764 45.9935L778.272 54.499L746.488 66.753L714.997 82.5286L684.395 101.533L655.237 123.415L628.079 147.762L603.422 174.12L581.725 202L563.395 230.889L548.771 260.238L538.123 289.509L531.659 318.148L535.318 322.97L533.211 348.499" stroke="white" stroke-width="1.7673" stroke-linecap="round" stroke-linejoin="round"/>
<path d="M405.258 364.244L406.351 358.872L408.477 337.581L409.19 312.566L408.477 284.291L406.351 253.289L402.853 220.139L398.047 185.448L392.023 149.868L384.893 114.067L376.791 78.7015L367.864 44.4405L358.284 11.9164L354.834 1.56641" stroke="white" stroke-width="1.7673" stroke-linecap="round" stroke-linejoin="round"/>
<path d="M326.069 338.193L325.258 332.851L325.016 327.043L321.522 319.827L312.789 301.801L312.459 301.335L295.99 277.985L274.934 256.038L275.504 247.682L276.988 239.379L252.378 217.175L224.41 197.269L193.603 180.031L160.532 165.784L125.813 154.789L90.0933 147.256L54.038 143.323L18.3183 143.06L1.04688 144.761" stroke="white" stroke-width="1.7673" stroke-linecap="round" stroke-linejoin="round"/>
<path d="M474.526 363.996L473.512 359.293L471.261 337.972L470.503 312.951L471.261 284.682L473.512 253.71L477.224 220.601L482.322 185.97L488.708 150.468L496.271 114.756L504.866 79.4984L514.332 45.3508L524.491 12.9461L528.532 1.56953" stroke="white" stroke-width="1.7673" stroke-linecap="round" stroke-linejoin="round"/>
<path d="M551.788 338.144L552.48 334.252L553.071 333.07L557.566 324.039L564.663 309.786L565.104 303.363L564.836 296.929L581.596 272.463L602.613 249.704L627.479 229.069L655.741 210.948L686.874 195.674L720.294 183.533L755.378 174.753L791.478 169.495L827.912 167.859L864.005 169.877L888.787 173.852" stroke="white" stroke-width="1.7673" stroke-linecap="round" stroke-linejoin="round"/>
<path d="M366.541 356.497L367.213 353.489L373.297 349.986L379.748 346.798L386.53 343.951L393.605 341.456L400.934 339.331L408.475 337.582L416.187 336.227L424.024 335.26L431.951 334.705L439.913 334.55L447.87 334.801L455.772 335.457L463.585 336.52L471.261 337.97L478.752 339.809L486.022 342.029L493.03 344.608L499.739 347.538L506.101 350.803L507.528 357.566" stroke="white" stroke-width="1.7673" stroke-linecap="round" stroke-linejoin="round"/>
<path d="M451.357 366.107L453.219 368.525L455.266 375.878L457.469 388.031L459.779 404.75L462.154 425.73L464.554 450.578L466.929 478.829L469.239 509.962L471.436 543.393L472.534 562.129" stroke="white" stroke-width="1.7673" stroke-linecap="round" stroke-linejoin="round"/>
<path d="M397.662 363.216L398.284 360.745L400.934 339.329L401.824 314.272L400.934 286.039L398.284 255.162L393.919 222.203L387.924 187.792L380.409 152.558L371.514 117.163L361.405 82.2636L350.271 48.5159L338.319 16.5409L331.971 1.56516" stroke="white" stroke-width="1.7673" stroke-linecap="round" stroke-linejoin="round"/>
<path d="M1.2981 17.3062L7.18752 15.999L32.8039 14.2621L60.304 16.6615L76.9535 1.56637" stroke="white" stroke-width="1.7673" stroke-linecap="round" stroke-linejoin="round"/>
<path d="M481.971 362.936L481.53 361.259L478.754 339.807L477.823 314.744L478.754 286.523L481.53 255.676L486.102 222.776L492.381 188.438L500.248 153.299L509.565 118.018L520.154 83.2492L531.811 49.6388L544.334 17.8131L551.586 1.56593" stroke="white" stroke-width="1.7673" stroke-linecap="round" stroke-linejoin="round"/>
<path d="M333.711 342.778L333.777 342.414L326.441 315.465L314.367 288.982L297.779 263.459L276.987 239.375L279.376 231.174L282.658 223.11L286.813 215.243L291.82 207.603L297.65 200.243L304.269 193.2L311.642 186.515L319.727 180.23L328.478 174.368L337.847 168.967L347.782 164.06L358.226 159.679L369.122 155.835L380.408 152.558L392.021 149.866L403.898 147.777L415.972 146.297L428.172 145.437L440.432 145.199L452.686 145.587L464.857 146.595L476.89 148.225L488.708 150.463L500.246 153.298L511.443 156.713L522.235 160.688L532.567 165.206L542.368 170.232L551.589 175.747L560.185 181.716L568.099 188.103L575.297 194.877L581.726 201.998L587.361 209.429L592.159 217.129L596.105 225.049L599.173 233.149L601.345 241.38L580.496 265.208L563.861 290.527L551.757 316.856L544.57 342.164L542.511 343.704" stroke="white" stroke-width="1.7673" stroke-linecap="round" stroke-linejoin="round"/>
<path d="M555.785 335.009L555.964 334.734L559.205 330.699L564.344 324.289L571.543 315.306L575.166 308.448L578.025 301.422L580.108 294.272L580.961 293.466L582.412 292.105L600.903 274.724L601.864 274.061L625.513 257.892L626.605 257.349L653.483 244.086L684.288 233.575L717.361 226.543L752.081 223.123L787.793 223.386L823.851 227.319L859.574 234.858L889.012 244.271" stroke="white" stroke-width="1.7673" stroke-linecap="round" stroke-linejoin="round"/>
<path d="M555.856 334.945L555.964 334.736L559.157 328.684L561.682 322.488L562.607 321.295L567.185 315.391L578.025 301.424L578.138 301.329L578.986 300.559L580.579 299.12L598.516 282.927L599.554 282.259L622.761 267.342L623.919 266.823L650.313 254.957L680.67 246.004L713.254 240.65L747.456 238.991L782.648 241.062L818.174 246.822L853.372 256.163L887.574 268.918" stroke="white" stroke-width="1.7673" stroke-linecap="round" stroke-linejoin="round"/>
<path d="M2.57739 470.464L24.8811 441.707L49.4487 414.716L75.8214 389.999L103.509 368.016L131.993 349.172L160.747 333.826L189.232 322.253L216.919 314.678L243.293 311.24L267.86 312.004L290.163 316.952L299.283 324.312L309.183 331.188L319.809 337.539L326.773 340.708L331.235 342.135" stroke="white" stroke-width="1.7673" stroke-linecap="round" stroke-linejoin="round"/>
<path d="M1.19824 57.6985L25.3027 57.1554L56.8419 60.5457L89.2902 67.8157L122.044 78.8222L154.491 93.3622L186.03 111.167L216.072 131.903L244.057 155.181L269.464 180.579L291.82 207.605L310.708 235.772L325.777 264.548L336.745 293.401L333.267 298.701L340.158 326.743L341.885 347.126" stroke="white" stroke-width="1.7673" stroke-linecap="round" stroke-linejoin="round"/>
<path d="M889.251 345.803L882.632 355.908L865.048 378.106L845.082 399.343L822.848 419.5L798.466 438.469L772.078 456.148L743.821 472.425L713.864 487.222L682.366 500.449L649.508 512.034L615.474 521.907L580.449 530.024L544.636 536.333L508.226 540.798L471.434 543.395L434.463 544.111L397.512 542.935L360.794 539.885L324.512 534.973L288.872 528.222L254.07 519.674L220.302 509.378L187.757 497.387L156.617 483.778L127.055 468.611L99.238 451.988L73.3202 433.986L49.4479 414.719L27.7537 394.288L8.35861 372.806L1.2981 364.294" stroke="white" stroke-width="1.7673" stroke-linecap="round" stroke-linejoin="round"/>
<path d="M544.499 343.348L547.132 342.298L549.167 341.486L555.404 338.997L572.863 337.356L592.095 340.233L612.735 347.574L634.408 359.249L656.707 375.043L679.21 394.65L701.509 417.714L723.182 443.798L743.822 472.424L763.059 503.056L780.512 535.12L793.118 562.129" stroke="white" stroke-width="1.7673" stroke-linecap="round" stroke-linejoin="round"/>
<path d="M324.452 335.297L320.101 326.672L314.026 314.633L310.445 309.876L297.393 292.524L295.144 290.388L276.544 272.72L275.28 264.399L274.407 263.755L250.412 245.997L249.392 245.436L222.148 230.413L220.965 229.935L191.017 217.932L157.598 208.794L122.514 203.165L86.4176 201.148L49.9822 202.783L13.8863 208.042L1.23901 211.205" stroke="white" stroke-width="1.7673" stroke-linecap="round" stroke-linejoin="round"/>
<path d="M315.866 326.753L313.042 323.22L305.398 313.664L301.959 306.758L299.285 299.697L297.393 292.522L296.293 285.27L295.543 284.53L275.28 264.397L274.933 256.035L250.011 236.362L250.667 226.74" stroke="white" stroke-width="1.7673" stroke-linecap="round" stroke-linejoin="round"/>
<path d="M554.982 335.583L557.322 331.011L561.685 322.487L563.523 316.172L564.663 309.786L567.033 306.569L581.406 287.033L582.176 286.281L602.386 266.422L603.282 265.772L627.223 248.325L628.255 247.77L655.449 233.092L656.643 232.627L686.541 220.994L719.912 212.267L754.949 207.074L790.995 205.505L827.381 207.588L863.433 213.294L889.015 219.8" stroke="white" stroke-width="1.7673" stroke-linecap="round" stroke-linejoin="round"/>
<path d="M558.276 332.986L563.612 328.778L573.622 320.893L575.299 320.088L594.083 311.081L617.343 305.249L642.961 303.518L670.46 305.918L699.331 312.394L729.038 322.839L759.013 337.051L788.714 354.772L817.585 375.663L845.084 399.342L870.702 425.36L889.038 447.337" stroke="white" stroke-width="1.7673" stroke-linecap="round" stroke-linejoin="round"/>
<path d="M536.775 347.443L539.837 346.315L543.962 344.65L544.176 344.542L546.874 343.205L548.969 342.172L555.404 338.997L566.195 332.778L576.277 326.027L596.863 322.44L619.545 323.174L643.886 328.223L669.444 337.481L695.737 350.791L722.274 367.892L748.573 388.473L774.131 412.145L798.466 438.467L821.148 466.957L841.74 497.075L859.849 528.268L875.153 559.951L875.995 562.129" stroke="white" stroke-width="1.7673" stroke-linecap="round" stroke-linejoin="round"/>
<path d="M326.912 338.607L325.258 332.848L324.698 331.719L320.479 323.202L313.057 308.232L311.082 305.528L296.295 285.27L295.991 277.982L296.487 270.7L297.781 263.46L299.863 256.309L279.378 231.175L255.131 207.723L227.576 186.397L197.224 167.601L164.64 151.676L130.434 138.927L95.241 129.579L59.717 123.82L24.5248 121.748L1.16943 122.882" stroke="white" stroke-width="1.7673" stroke-linecap="round" stroke-linejoin="round"/>
<path d="M335.953 344.041L335.33 337.087L328.103 309.768L316.206 282.675L299.863 256.311L302.723 249.286L306.346 242.427L310.71 235.772L315.791 229.356L321.561 223.22L327.986 217.394L335.034 211.909L342.662 206.8L350.828 202.096L359.487 197.822L368.591 193.996L378.087 190.648L387.925 187.795L398.047 185.449L408.398 183.629L418.922 182.333L429.552 181.587L440.243 181.378L450.921 181.719L461.533 182.596L472.021 184.017L482.323 185.968L492.38 188.439L502.139 191.418L511.546 194.88L520.547 198.813L529.088 203.2L537.128 208.005L544.619 213.204L551.519 218.773L557.792 224.682L563.397 230.89L568.304 237.366L572.494 244.075L575.932 250.975L559.834 277.966L562.197 284.197L563.863 290.53L564.836 296.929L552.635 322.642L547.645 340.465L547.55 340.805" stroke="white" stroke-width="1.7673" stroke-linecap="round" stroke-linejoin="round"/>
<path d="M1.35132 97.3241L11.2285 78.6238L25.3036 57.154L41.6934 36.4601L60.3047 16.6615L89.1753 23.1436L118.878 33.5891L148.859 47.8009L178.562 65.5163L207.433 86.4072L234.931 110.085L260.549 136.103L283.805 163.984L304.27 193.201L321.56 223.218L335.354 253.468L345.394 283.396L351.494 312.434L347.195 317.006L343.411 321.787L340.159 326.742L337.46 331.851L335.329 337.086L333.778 342.416L333.817 342.845L333.91 342.899L335.524 343.866L335.957 344.087L338.65 345.466L341.886 347.125L344.563 348.552L345.326 348.892L345.633 349.029L345.732 349.071L348.849 350.432L352.546 352.049L352.582 352.061L355.427 353.112L356.873 353.554L361.693 355.022L363.916 355.696L367.214 353.488L368.892 328.102L374.834 324.676L381.134 321.567L387.757 318.785L394.667 316.35L401.824 314.273L409.189 312.566L416.719 311.241L424.377 310.303L432.113 309.754L439.89 309.605L447.661 309.85L455.379 310.494L463.007 311.527L470.504 312.948L477.822 314.744L484.925 316.905L491.765 319.43L498.313 322.289L504.532 325.482L506.102 350.802L512.095 354.383L513.975 355.69L517.413 354.694L519.377 354.121L522.104 353.16L525.566 351.942L526.265 351.673L527.942 351.106L529.488 350.557L529.876 350.229L530.109 350.032L530.873 349.704L532.013 349.375L533.188 348.844L536.794 347.191L539.886 345.782L540.041 345.126L540.721 344.809L542.512 343.705L542.989 338.369L541.002 333.11L548.117 305.516L559.833 277.964L556.801 271.87L553.106 265.955L568.303 237.364L587.362 209.43L609.912 182.678L635.542 157.603L663.774 134.671L694.078 114.305L725.892 96.8944L758.619 82.7542L791.662 72.1536L824.401 65.2895L856.215 62.2872L886.525 63.2063L888.769 66.8115" stroke="white" stroke-width="1.7673" stroke-linecap="round" stroke-linejoin="round"/>
<path d="M887.574 268.917L878.353 291.574L866.666 313.701L852.585 335.171L836.195 355.864L817.584 375.663L796.854 394.459L774.131 412.144L749.522 428.618L723.181 443.797L695.247 457.591L665.886 469.923L635.255 480.726L603.518 489.93L570.869 497.498L537.479 503.378L503.541 507.544L469.238 509.961L434.768 510.63L400.317 509.538L366.085 506.69L332.261 502.112L299.033 495.815L266.588 487.847L235.106 478.249L204.765 467.075L175.734 454.38L148.173 440.246L122.239 424.745L98.077 407.966L75.8205 390L55.5951 370.954L37.5132 350.928L21.6761 330.037L8.17285 308.394L1.45972 294.923" stroke="white" stroke-width="1.7673" stroke-linecap="round" stroke-linejoin="round"/>
<path d="M345.325 348.894L344.561 348.553L341.944 347.825L338.755 346.679L336.02 344.799L335.737 343.951L334.005 343.253L333.647 342.937L333.676 342.764L330.953 341.134L328.615 339.737L326.948 338.741L326.298 338.353L326.067 338.191L325.83 338.024L323.984 335.786L323.368 336.138L322.155 334.992L321.7 334.395L320.037 333.512L317.993 332.509L309.788 325.997L307.945 325.144L290.162 316.954L281.875 309.147L274.466 300.946L267.978 292.387L262.445 283.517L261.174 283.04L235.986 273.555L230.759 263.068L226.695 252.336L223.82 241.431L222.147 230.413L221.687 219.334L222.442 208.268L224.408 197.268L227.573 186.398L231.92 175.726L237.425 165.299L244.056 155.182L251.779 145.435L260.548 136.105L270.313 127.253L281.023 118.921L292.616 111.156L305.026 104.005L318.186 97.5049L332.021 91.6972L346.454 86.6058L361.404 82.2665L376.789 78.7031L392.519 75.9336L408.51 73.9698L424.674 72.8298L440.915 72.5194L457.144 73.0328L473.272 74.3757L489.209 76.5305L504.865 79.497L520.151 83.2513L534.984 87.7757L549.279 93.0402L562.954 99.021L575.942 105.682L588.16 112.982L599.542 120.891L610.03 129.354L619.562 138.326L628.079 147.762L635.54 157.605L641.903 167.8L647.126 178.293L651.191 189.019L654.068 199.924L655.739 210.948L656.198 222.02L655.446 233.093L653.483 244.087L650.313 254.956L645.968 265.635L640.465 276.056L633.833 286.173L626.11 295.92L617.341 305.25L607.576 314.107L596.862 322.44L585.271 330.199L572.862 337.356L559.701 343.85L545.865 349.664L531.432 354.749L516.486 359.088L501.099 362.652L485.371 365.421L479.318 363.41L474.526 363.995L466.503 364.98L465.411 365.111L457.974 365.636L451.355 366.108L449.11 366.149L440.05 366.322L437.232 366.376L430.965 366.179L423.116 365.929L422.03 365.839L413.417 365.123L409.091 364.765L405.256 364.245L397.661 363.219L395.233 362.89L388.68 364.824L381.462 371.647L363.559 368.256L346.077 363.965L329.115 358.796L312.767 352.773L297.125 345.933L282.275 338.317L268.302 329.966L255.283 320.924L243.291 311.242L232.393 300.982L222.65 290.19L214.118 278.933L206.842 267.276L200.864 255.279L196.218 243.007L192.929 230.538L191.016 217.932L190.49 205.266L191.353 192.612L193.601 180.03L197.221 167.603L202.192 155.39L208.487 143.471L216.072 131.903L224.902 120.753L234.93 110.087L246.098 99.9581L258.346 90.4319L271.602 81.5502L285.796 73.3729L300.845 65.9418L316.668 59.2985L333.173 53.4789L350.27 48.5188L367.862 44.4421L385.853 41.2726L404.141 39.0284L422.621 37.7272L441.196 37.3691L459.759 37.954L478.202 39.488L496.425 41.9531L514.332 45.3493L531.808 49.6409L548.772 54.8099L565.12 60.8325L580.765 67.6727L595.615 75.289L609.588 83.6393L622.606 92.6821L634.597 102.363L645.496 112.624L655.237 123.416L663.773 134.673L671.049 146.33L677.024 158.327L681.673 170.599L684.956 183.068L686.872 195.674L687.397 208.34L686.538 220.994L684.288 233.576L680.671 246.003L675.699 258.215L669.401 270.135L661.815 281.703L652.987 292.852L642.96 303.519L631.792 313.648L619.544 323.174L606.287 332.05L592.093 340.233L577.04 347.664L561.223 354.307L544.713 360.127L527.618 365.087L510.028 369.164L492.032 372.333L485.371 365.421L469.38 367.385L453.217 368.525L436.976 368.841L420.746 368.328L404.616 366.985L388.68 364.824L373.025 361.864L357.738 358.109L346.077 363.965L333.559 374.512L314.311 368.638L295.759 361.804L278.008 354.045L261.156 345.402L245.3 335.923L230.526 325.663L216.918 314.68L204.552 303.035L193.495 290.793L183.813 278.02L175.556 264.787L168.772 251.172L163.501 237.247L159.768 223.095L157.597 208.794L157 194.421L157.979 180.054L160.53 165.782L164.637 151.678L170.279 137.824L177.423 124.293L186.03 111.167L196.051 98.5196L207.431 86.4089L220.105 74.9189L234.003 64.1034L249.046 54.028L265.153 44.7525L282.231 36.3185L300.185 28.774L318.915 22.1724L338.317 16.5438L358.282 11.918L378.697 8.31883L399.45 5.77608L420.424 4.29582L441.5 3.88996L462.564 4.55848L483.491 6.29538L504.173 9.09478L524.491 12.9447L544.331 17.8152L563.58 23.6825L582.131 30.5168L599.883 38.2763L616.733 46.9251L632.586 56.3977L647.365 66.658L660.967 77.6466L673.335 89.2918L684.395 101.534L694.076 114.307L702.331 127.54L709.112 141.155L714.394 155.074L718.119 169.226L720.292 183.533L720.888 197.906L719.91 212.267L717.361 226.545L713.254 240.649L707.608 254.503L700.463 268.028L691.856 281.159L681.834 293.807L670.458 305.918L657.786 317.408L643.885 328.224L628.843 338.293L612.733 347.574L595.657 356.008L577.703 363.547L561.223 354.307L545.865 349.664L532.011 349.377L529.492 345.629L531.659 318.148L527.481 313.522L522.813 309.123L528.663 279.852L538.29 249.549L551.517 218.773L568.099 188.106L587.724 158.112L610.03 129.354L634.597 102.363L660.967 77.6466L688.657 55.6575L717.146 36.8199L745.898 21.4681L774.387 9.90057L802.07 2.32611L822.293 21.3726L840.372 41.398L856.213 62.2889L869.721 83.9259L880.811 106.195L889.436 128.967" stroke="white" stroke-width="1.7673" stroke-linecap="round" stroke-linejoin="round"/>
<path d="M539.844 346.249L543.963 344.65L559.703 343.85L577.042 347.664L595.659 356.008L615.201 368.74L635.31 385.608L655.604 406.307L675.706 430.451L695.248 457.592L713.865 487.221L731.205 518.784L746.95 551.696L751.248 562.129" stroke="white" stroke-width="1.7673" stroke-linecap="round" stroke-linejoin="round"/>
<path d="M322.156 334.993L321.983 334.832L321.701 334.396L321.091 333.286L319.137 331.698L313.09 327.514L302.595 319.223L300.961 318.429L281.876 309.148L258.33 303.03L249.811 293.599L222.651 290.191L193.496 290.794L162.889 295.384L131.398 303.889L99.6114 316.143L68.1212 331.925L37.5136 350.93L8.35896 372.805L1 379.216" stroke="white" stroke-width="1.7673" stroke-linecap="round" stroke-linejoin="round"/>
<path d="M554.424 337.654L554.472 337.636L566.195 332.778L585.271 330.199L606.287 332.049L628.843 338.293L652.522 348.816L676.886 363.416L701.478 381.823L725.842 403.693L749.521 428.619L772.077 456.147L793.087 485.746L812.164 516.88L828.954 548.962L834.714 562.129" stroke="white" stroke-width="1.7673" stroke-linecap="round" stroke-linejoin="round"/>
<path d="M352.546 352.049L348.828 350.682L345.672 349.518L342.995 348.527L341.944 347.823L338.687 345.889L337.459 331.85L330.381 304.167L318.729 276.472L321.926 270.419L325.777 264.546L330.261 258.888L335.353 253.468L341.024 248.329L347.242 243.488L353.975 238.982L361.181 234.827L368.823 231.055L376.856 227.683L385.237 224.728L393.918 222.203L402.851 220.138L411.987 218.526L421.272 217.386L430.655 216.724L440.086 216.545L449.511 216.843L458.876 217.619L468.134 218.873L477.224 220.598L486.1 222.776L494.713 225.402L503.015 228.459L510.954 231.932L518.498 235.8L525.589 240.044L532.203 244.634L538.291 249.546L543.824 254.757L548.772 260.236L553.106 265.955L542.039 294.665L545.376 300.013L538.434 327.971L541.001 333.11L539.938 345.179L536.793 347.19L533.188 348.844L532.149 349.136L530.872 349.703L530.108 350.031L529.869 350.133L526.264 351.673L525.565 351.941" stroke="white" stroke-width="1.7673" stroke-linecap="round" stroke-linejoin="round"/>
<path d="M333.817 342.846L333.648 342.935L331.095 341.634L330.692 340.189L325.411 321.232L313.227 295.37L296.486 270.7L275.503 247.679L250.667 226.74L252.378 217.172L255.13 207.723L258.91 198.436L263.698 189.369L269.465 180.577L276.181 172.096L283.805 163.984L292.299 156.284L301.613 149.038L311.693 142.287L322.486 136.068L333.93 130.415L345.961 125.366L358.513 120.937L371.514 117.165L384.892 114.067L398.573 111.655L412.479 109.948L426.532 108.957L440.66 108.683L454.77 109.131L468.797 110.3L482.656 112.175L496.271 114.753L509.564 118.018L522.462 121.952L534.895 126.53L546.791 131.734L558.084 137.524L568.709 143.875L578.611 150.751L587.725 158.111L596.016 165.918L603.423 174.119L609.911 182.678L615.445 191.548L619.993 200.668L623.52 209.998L626.021 219.482L627.478 229.068L627.878 238.702L627.221 248.323L625.514 257.891L622.762 267.34L618.978 276.627L614.191 285.688L608.425 294.486L601.71 302.968L594.082 311.079L585.594 318.779L576.277 326.025L560.358 332.919L558.222 333.427L556.329 334.513L555.631 335.265L554.825 335.88L553.542 336.638L552.844 337.259L553.249 337.718L554.151 337.193L554.915 336.047L555.321 335.772L555.47 335.671L555.488 335.659L558.162 333.868L566.25 327.577L568.148 326.712L585.594 318.779L607.578 314.106L631.793 313.646L657.787 317.406L685.077 325.321L699.33 312.393L712.121 298.778L723.397 284.548L733.078 269.787L741.112 254.573L747.457 238.988L752.083 223.123L754.948 207.073L756.046 190.915L755.377 174.752L752.936 158.666L748.734 142.747L742.813 127.091L735.179 111.775L725.892 96.8944L714.998 82.5275L702.565 68.7574L688.658 55.6558L673.354 43.3064L656.737 31.7627L638.902 21.1024L619.951 11.3851L599.985 2.65874L597.025 1.5664" stroke="white" stroke-width="1.7673" stroke-linecap="round" stroke-linejoin="round"/>
<path d="M325.832 338.023L324.107 336.829L323.698 336.543L323.578 336.387L320.399 330.168L315.697 320.964L311.825 315.944L310.561 314.309L299.287 299.697L296.799 297.435L278.716 280.949L277.693 280.281L254.368 265.066L251.867 255.582L250.413 245.996L250.013 236.362L221.689 219.333L190.492 205.265L157.002 194.419L121.843 186.994L85.6705 183.138L49.1574 182.911L12.9846 186.325" stroke="white" stroke-width="1.7673" stroke-linecap="round" stroke-linejoin="round"/>
<path d="M510.383 328.974L511.242 353.834" stroke="white" stroke-width="1.7673" stroke-linecap="round" stroke-linejoin="round"/>
<path d="M504.53 325.485L510.38 328.977" stroke="white" stroke-width="1.7673" stroke-linecap="round" stroke-linejoin="round"/>
<path d="M889.192 1H1.26196V563H889.192V1Z" stroke="white" stroke-width="1.65193" stroke-linecap="round" stroke-linejoin="round"/>
</svg>
