<?xml version="1.0" encoding="UTF-8"?>
<svg width="276px" height="50px" viewBox="0 0 276 50" version="1.1" xmlns="http://www.w3.org/2000/svg" xmlns:xlink="http://www.w3.org/1999/xlink">
    <!-- Generator: Sketch 57.1 (83088) - https://sketch.com -->
    <title>allhers</title>
    <desc>Created with Sketch.</desc>
    <g id="Page-1" stroke="none" stroke-width="1" fill="none" fill-rule="evenodd">
        <g id="allhers" fill-rule="nonzero">
            <path d="M14.4688175,17.6606447 C21.4881723,17.6606447 26.1118283,19.0851608 28.3440863,21.9341931 C29.5010756,23.461935 30.326882,25.7741931 30.8215057,28.8709673 L30.9462369,29.7999995 L31.9956992,39.2141931 C32.2881723,40.9896769 32.6795702,42.4245156 33.1741938,43.5187092 C33.6688175,44.6129027 34.1763444,45.3148382 34.6924734,45.6245156 C35.2086025,45.9341931 35.7118283,46.1199995 36.210753,46.181935 C36.7053766,46.2438705 37.0967745,46.1922576 37.3849465,46.0270963 L37.8193551,45.7793544 L37.8193551,46.5225802 C37.5311831,47.3070963 36.1892476,48.0090318 33.7935487,48.6283866 C29.870968,49.6193544 26.6924734,49.3509673 24.2537637,47.8232253 C23.182796,47.1212898 22.3784949,46.2335479 21.8408605,45.1599995 C20.7655917,46.4812898 19.0752691,47.5341931 16.7612906,48.3187092 C15.1913982,48.8554834 13.5182799,49.1238705 11.7462369,49.1238705 C6.87311858,49.1238705 3.59139815,47.781935 1.89677449,45.098064 C1.15268847,43.941935 0.782796,42.5999995 0.782796,41.0722576 C0.782796,37.1496769 2.67957019,34.5483866 6.48172073,33.2683866 C7.38924761,32.9793544 9.68172073,32.545806 13.354839,31.9677415 C16.494624,31.4309673 18.3913982,30.5845156 19.0537637,29.4283866 C19.3849465,28.7677415 19.5053766,27.9832253 19.4236562,27.0748382 L19.298925,26.3935479 C18.9290326,23.7509673 18.5763444,22.058064 18.2494627,21.3148382 C17.4236562,19.5806447 16.1419358,18.6929027 14.4086025,18.6516124 C11.3118283,18.7341931 9.72043041,19.7664511 9.63870998,21.7483866 C9.59569923,23.3174189 10.443011,24.2051608 12.1763444,24.4116124 C12.5075272,24.4529027 12.83871,24.4735479 13.1698928,24.4735479 C13.7462369,26.7032253 13.1053766,28.4374189 11.2473121,29.6761285 C9.59569923,30.7909673 7.94408632,30.9767737 6.29247342,30.2335479 C5.05376374,29.6967737 4.24946267,28.705806 3.87957019,27.2606447 C3.17849492,24.618064 3.85806482,22.3264511 5.92258095,20.385806 C7.94408632,18.5690318 10.7956992,17.6606447 14.4688175,17.6606447 Z M19.7978498,30.2954834 C19.5053766,30.9561285 18.4731186,31.781935 16.7010756,32.7729027 C14.4301078,34.0941931 12.9419358,35.3329027 12.2408605,36.4890318 C11.6602154,37.5625802 11.3720433,38.7393544 11.3720433,40.0193544 C11.3720433,42.8683866 12.5075272,44.7883866 14.7784949,45.7793544 C16.5978498,46.5638705 18.2279573,46.4812898 19.6731186,45.5316124 C20.8301078,44.7883866 21.3247315,43.6941931 21.1569895,42.2490318 L19.7978498,30.2954834 Z" id="Shape" fill="#FFFEFF"></path>
            <path d="M54.6064519,0.628386613 L55.6000003,0.628386613 L55.6000003,17.6606447 L55.6000003,36.4270963 L55.6000003,40.2670963 C55.6000003,43.9832253 56.4860218,46.2541931 58.2623659,47.0799995 C59.0451616,47.4516124 60.0172046,47.6374189 61.1741938,47.6374189 L61.1741938,48.6283866 L38.8774197,48.6283866 L38.8774197,47.6374189 C41.5182799,47.6374189 43.1698928,46.7909673 43.8322584,45.098064 C44.2451616,44.0245156 44.4516132,42.4141931 44.4516132,40.2670963 L44.4516132,36.4270963 L44.4516132,15.4929027 C44.4516132,10.9509673 43.4580648,8.26709629 41.4752691,7.44128984 C40.9806455,7.27612855 40.4430111,7.15225758 39.866667,7.06967694 L39.866667,6.07870919 C41.4752691,6.07870919 43.0881723,5.89290274 44.6967745,5.52128984 C46.3096777,5.14967694 47.6817207,4.69548339 48.8172046,4.15870919 C49.9526885,3.621935 50.9720433,3.08516081 51.8838713,2.54838661 C52.7913982,2.01161242 53.470968,1.55741887 53.926882,1.18580597 L54.6064519,0.628386613 Z" id="Path" fill="#FFFEFF"></path>
            <path d="M78.4516132,0.628386613 L79.4451616,0.628386613 L79.4451616,17.6606447 L79.4451616,36.4270963 L79.4451616,40.2670963 C79.4451616,43.9832253 80.3311831,46.2541931 82.1075272,47.0799995 C82.8903229,47.4516124 83.8623659,47.6374189 85.0193551,47.6374189 L85.0193551,48.6283866 L62.7225809,48.6283866 L62.7225809,47.6374189 C65.3634412,47.6374189 67.0150541,46.7909673 67.6774197,45.098064 C68.0903229,44.0245156 68.2967745,42.4141931 68.2967745,40.2670963 L68.2967745,36.4270963 L68.2967745,15.4929027 C68.2967745,10.9509673 67.3032261,8.26709629 65.3204304,7.44128984 C64.8258068,7.27612855 64.2881723,7.15225758 63.7118283,7.06967694 L63.7118283,6.07870919 C65.3204304,6.07870919 66.9333336,5.89290274 68.5419358,5.52128984 C70.154839,5.14967694 71.526882,4.69548339 72.6623659,4.15870919 C73.7978498,3.621935 74.8172046,3.08516081 75.7290326,2.54838661 C76.6365594,2.01161242 77.3161293,1.55741887 77.7720433,1.18580597 L78.4516132,0.628386613 Z" id="Path" fill="#FFFEFF"></path>
            <path d="M102.296774,0.628386613 L103.290323,0.628386613 L103.290323,17.6606447 L103.290323,20.6335479 C105.51828,18.858064 108.017205,17.8670963 110.782796,17.6606447 C119.040861,17.2064511 123.810753,20.9432253 125.088172,28.8709673 L125.832258,35.498064 C126.619355,41.898064 127.896774,45.6967737 129.673119,46.8941931 C130.417205,47.3896769 131.591398,47.6374189 133.204301,47.6374189 L133.204301,48.6283866 L123.169893,48.6283866 L111.462366,48.6283866 L111.462366,47.6374189 C113.488172,47.6374189 114.705377,46.9767737 115.11828,45.6554834 C115.406452,44.581935 115.427957,42.785806 115.178495,40.2670963 L114.004301,29.738064 C113.341936,24.4529027 111.815054,21.2322576 109.419355,20.0761285 C108.593549,19.6632253 107.746237,19.5599995 106.881721,19.7664511 C104.898925,20.3032253 103.741936,22.4503221 103.410753,26.2077415 C103.329033,27.0748382 103.290323,28.0245156 103.290323,29.0567737 L103.290323,36.4270963 L103.290323,40.2670963 C103.290323,43.9832253 104.176344,46.2541931 105.952688,47.0799995 C106.735484,47.4516124 107.707527,47.6374189 108.864516,47.6374189 L108.864516,48.6283866 L86.5677422,48.6283866 L86.5677422,47.6374189 C89.2086025,47.6374189 90.8602154,46.7909673 91.5225809,45.098064 C91.9354842,44.0245156 92.1419358,42.4141931 92.1419358,40.2670963 L92.1419358,36.4270963 L92.1419358,15.4929027 C92.1419358,10.9509673 91.1483874,8.26709629 89.1655917,7.44128984 C88.670968,7.27612855 88.1333336,7.15225758 87.5569895,7.06967694 L87.5569895,6.07870919 C89.1655917,6.07870919 90.7784949,5.89290274 92.3870971,5.52128984 C94.0000003,5.14967694 95.3720433,4.69548339 96.5075272,4.15870919 C97.6430111,3.621935 98.6623659,3.08516081 99.5741938,2.54838661 C100.481721,2.01161242 101.161291,1.55741887 101.617205,1.18580597 L102.296774,0.628386613 Z" id="Path" fill="#FFFEFF"></path>
            <path d="M145.630108,17.6606447 C150.709678,17.701935 154.507527,19.3329027 157.023656,22.5535479 C158.511828,24.5354834 159.006452,26.5793544 158.511828,28.6851608 C157.810753,31.1212898 155.974194,32.545806 152.99785,32.9587092 L141.294624,34.2593544 C141.376344,34.5896769 141.47957,34.9406447 141.604301,35.3122576 C142.8,38.9870963 144.989248,41.4438705 148.167742,42.6825802 C151.264516,43.9212898 154.19785,43.6116124 156.963441,41.7535479 C158.245162,40.8864511 159.316129,39.7509673 160.184947,38.3470963 L160.929033,39.0903221 C159.070968,43.7561285 155.806452,46.8322576 151.139785,48.3187092 C146.847312,49.7225802 142.593549,49.4335479 138.387097,47.4516124 C134.215054,45.4283866 131.488172,42.2903221 130.210753,38.0374189 C129.922581,37.0464511 129.733334,36.0348382 129.651613,35.0025802 C129.075269,28.7264511 130.705377,24.0606447 134.546237,21.0051608 C137.311828,18.7754834 141.006452,17.6606447 145.630108,17.6606447 Z M145.565592,18.6516124 C143.049463,18.6516124 141.47957,20.6748382 140.860215,24.7212898 C140.529033,27.1574189 140.593549,29.9238705 141.045162,33.0206447 C141.088172,33.1032253 141.109678,33.185806 141.109678,33.2683866 L143.27742,33.0206447 C147.651613,32.5251608 149.965592,30.7290318 150.210753,27.6322576 C150.210753,27.2606447 150.210753,26.8890318 150.210753,26.5174189 C149.67742,21.3148382 148.129033,18.6929027 145.565592,18.6516124 Z" id="Shape" fill="#FFFEFF"></path>
            <path d="M185.453764,17.2270963 C188.262366,17.2270963 190.326882,18.2799995 191.647312,20.385806 C193.010753,22.5329027 192.967742,24.8245156 191.522581,27.2606447 C190.451613,29.0361285 188.860215,29.861935 186.752688,29.738064 C184.774194,29.6554834 183.389248,28.8296769 182.606452,27.2606447 C182.43871,26.8477415 182.313979,26.4348382 182.232258,26.021935 C183.965592,25.9806447 184.99785,25.1754834 185.329033,23.6064511 C185.617205,22.2025802 185.268818,21.0670963 184.275269,20.1999995 C183.617205,19.6632253 182.830108,19.4774189 181.922581,19.6425802 C179.939785,19.9729027 178.683871,21.1083866 178.146237,23.0490318 C177.733334,24.4529027 177.526882,27.0335479 177.526882,30.7909673 L177.526882,36.4270963 L177.526882,40.2670963 C177.526882,43.9832253 178.412904,46.2541931 180.189248,47.0799995 C180.972043,47.4516124 181.944086,47.6374189 183.101076,47.6374189 L183.101076,48.6283866 L160.804301,48.6283866 L160.804301,47.6374189 C163.445162,47.6374189 165.096774,46.7909673 165.75914,45.098064 C166.172043,44.0245156 166.378495,42.4141931 166.378495,40.2670963 L166.378495,36.4270963 L166.378495,32.5251608 C166.378495,27.9832253 165.384947,25.2993544 163.406452,24.4735479 C162.907527,24.3083866 162.374194,24.1845156 161.793549,24.101935 L161.793549,23.1109673 C163.406452,23.1109673 165.015054,22.9251608 166.623656,22.5535479 C168.236559,22.181935 169.608602,21.7277415 170.744086,21.1909673 C171.87957,20.6541931 172.903226,20.1174189 173.810753,19.5806447 C174.71828,19.0438705 175.39785,18.5896769 175.853764,18.218064 L176.533334,17.6606447 L177.526882,17.6606447 L177.526882,20.6954834 C178.55914,19.3329027 180.232258,18.3212898 182.541936,17.6606447 C183.535484,17.3716124 184.503226,17.2270963 185.453764,17.2270963 Z" id="Path" fill="#FFFEFF"></path>
            <path d="M207.178495,17.6606447 C208.498925,17.6606447 210.503226,17.9290318 213.187097,18.465806 C214.176344,18.6309673 214.778495,18.4451608 214.984947,17.9083866 C215.023656,17.825806 215.066667,17.7432253 215.105377,17.6606447 L216.098925,17.6606447 L217.088172,27.818064 L216.034409,27.8799995 C214.963441,23.2141931 213.165592,20.3445156 210.649463,19.2709673 C209.617205,18.858064 208.460215,18.6516124 207.178495,18.6516124 C205.15699,18.6516124 203.896774,19.5187092 203.402151,21.2529027 C203.070968,22.3677415 203.195699,23.5032253 203.772043,24.6593544 C204.391398,25.8567737 206.374194,27.1987092 209.72043,28.6851608 C213.724731,30.4193544 216.305377,31.6993544 217.462366,32.5251608 C219.853764,34.2593544 221.053764,36.2412898 221.053764,38.4709673 C221.053764,42.3109673 219.174194,45.2012898 215.415054,47.141935 C212.817205,48.4632253 209.655914,49.1238705 205.939785,49.1238705 C201.39785,49.1238705 198.034409,47.8232253 195.845162,45.221935 C194.4,43.4464511 193.926882,41.5264511 194.421506,39.461935 C194.95914,37.4387092 196.258065,36.3445156 198.322581,36.1793544 C198.486022,36.1793544 198.610753,36.1793544 198.692473,36.1793544 C200.593549,36.138064 202.060215,36.8606447 203.092473,38.3470963 C203.875269,39.5032253 204.081721,40.8245156 203.711828,42.3109673 C202.473119,41.6916124 201.462366,42.0425802 200.675269,43.3638705 C200.344086,43.941935 200.180645,44.4993544 200.180645,45.0361285 C200.223656,46.3987092 201.152688,47.3277415 202.967742,47.8232253 C203.711828,47.9883866 204.516129,48.0916124 205.384947,48.1329027 C208.313979,48.1329027 210.215054,46.9767737 211.07957,44.6645156 C211.329033,44.0451608 211.453764,43.4051608 211.453764,42.7445156 C211.453764,40.8038705 210.090323,39.1316124 207.363441,37.7277415 C206.744086,37.3561285 205.711828,36.8606447 204.266667,36.2412898 C200.675269,34.6722576 198.262366,33.2270963 197.023656,31.905806 C195.698925,30.501935 194.937635,28.8916124 194.731183,27.0748382 C194.4,23.2761285 196.008602,20.5922576 199.561291,19.0232253 C201.582796,18.1148382 204.124731,17.6606447 207.178495,17.6606447 Z" id="Path" fill="#FFFEFF"></path>
            <path d="M226.950538,24.8326877 C226.950538,11.4172038 237.827957,0.541935 251.243011,0.541935 C264.658065,0.541935 275.531183,11.4172038 275.531183,24.8326877 C275.531183,38.2481716 264.658065,49.1238705 251.243011,49.1238705 C237.827957,49.1238705 226.950538,38.2481716 226.950538,24.8326877 Z" id="Path" fill="#D8A589"></path>
            <polygon id="Path" fill="#242326" points="239.350538 19.065806 246.008602 30.5999995 232.692473 30.5999995"></polygon>
            <polygon id="Path" fill="#242326" points="252.731183 19.065806 264.266667 19.065806 264.266667 30.5999995 252.731183 30.5999995"></polygon>
            <path d="M247.2,28.8782791 C247.2,27.9268812 247.974194,27.1561285 248.924731,27.1561285 C249.875269,27.1561285 250.645162,27.9268812 250.645162,28.8782791 C250.645162,29.8292468 249.875269,30.5999995 248.924731,30.5999995 C247.974194,30.5999995 247.2,29.8292468 247.2,28.8782791 Z" id="Path" fill="#242326"></path>
            <path d="M266.348387,28.8782791 C266.348387,27.9268812 267.11828,27.1561285 268.073119,27.1561285 C269.023656,27.1561285 269.793549,27.9268812 269.793549,28.8782791 C269.793549,29.8292468 269.023656,30.5999995 268.073119,30.5999995 C267.11828,30.5999995 266.348387,29.8292468 266.348387,28.8782791 Z" id="Path" fill="#242326"></path>
        </g>
    </g>
</svg>