<svg xmlns="http://www.w3.org/2000/svg" width="715" height="213"><title>kin-beta-logo</title><desc>Created with Sketch.</desc><g fill="none"><g fill="#1C1F26" fill-rule="nonzero"><g><g><path d="M49.87 202.08v-47.14h9.5l27.97 48c2.3 4.02 5.2 5.75 8.94 5.75h38.92c7.78 0 10.37-6.34 6.63-12.37l-40.94-66.4L134.6 78.2c3.75-5.76 1.73-11.8-5.2-11.8H93.98c-3.74 0-7.2 1.15-9.8 5.17l-25.94 41.1h-8.36V14.1c0-3.75-2.88-6.63-6.63-6.63H6.92C3.17 7.47 0 10.35 0 14.1v187.98c0 3.73 3.17 6.6 6.92 6.6h36.32c3.75 0 6.63-2.87 6.63-6.6zM176.42 56.9c15.56 0 28.54-12.92 28.54-28.44C204.96 12.94 191.98 0 176.42 0c-15.57 0-28.54 12.94-28.54 28.46 0 15.52 12.97 28.45 28.54 28.45zm18.16 151.8c3.75 0 6.63-3.17 6.63-6.9V73c0-3.72-2.87-6.6-6.62-6.6h-36.32c-3.75 0-6.92 2.88-6.92 6.6v128.8c0 3.73 3.17 6.9 6.92 6.9h36.32zm131.45-6.05c0 3.45 3.46 6.04 6.92 6.04h36.03c3.46 0 6.92-2.6 6.92-6.05v-79.33c0-34.2-23.64-61.23-61.4-61.23-21.05 0-35.17 7.75-43.82 15.5v-5.16c0-3.45-3.46-6.04-6.92-6.04h-36.32c-3.75 0-6.63 2.88-6.63 6.6V202.1c0 3.73 2.9 6.6 6.64 6.6h36.32c3.46 0 6.92-2.58 6.92-6.03V137.4c0-17.53 11.24-29.32 27.96-29.32s27.4 11.8 27.4 29.32v65.25zm95.4 10.35c16.73 0 30.57-13.8 30.57-30.18 0-16.67-13.84-30.47-30.56-30.47s-30.26 13.8-30.26 30.47c0 16.38 13.54 30.18 30.26 30.18z"/></g><path d="M483.13 212.9c-.64 0-1.16-.2-1.55-.63-.4-.42-.58-.95-.58-1.6v-63.34c0-.7.2-1.28.58-1.7.4-.42.9-.63 1.55-.63h26.5c6.84 0 12 1.65 15.5 4.95 3.5 3.3 5.24 7.6 5.24 12.9 0 3.62-.84 6.64-2.52 9.07-1.68 2.42-3.65 4.18-5.92 5.28 2.78 1.36 5.1 3.46 7 6.3 1.86 2.85 2.8 6.12 2.8 9.8 0 3.63-.82 6.93-2.47 9.9-1.65 2.97-4.1 5.33-7.33 7.08-3.23 1.75-7.08 2.62-11.54 2.62h-27.27zm25.03-39.1c4.2 0 7.4-.94 9.6-2.85 2.2-1.9 3.3-4.58 3.3-8 0-3.37-1.08-5.92-3.25-7.67-2.15-1.74-5.37-2.62-9.64-2.62h-18.04v21.15h18.04zm.97 31.44c4.14 0 7.4-1.12 9.75-3.35 2.36-2.24 3.54-5.1 3.54-8.6 0-3.55-1.18-6.43-3.54-8.63-2.36-2.2-5.6-3.3-9.75-3.3h-19v23.87h19zm38.7 7.66c-.64 0-1.16-.2-1.55-.63-.4-.42-.58-.95-.58-1.6v-63.34c0-.7.2-1.28.58-1.7.4-.42.9-.63 1.55-.63h39.87c.7 0 1.28.2 1.7.63.42.42.63 1 .63 1.7v3.5c0 .64-.2 1.15-.63 1.54-.42.4-1 .58-1.7.58h-33.08v21.64h30.95c.7 0 1.27.2 1.7.62.4.42.62.98.62 1.7v3.3c0 .64-.22 1.17-.64 1.6-.42.4-.98.62-1.7.62h-30.94v22.4h33.86c.7 0 1.27.22 1.7.64.4.42.62 1 .62 1.7v3.5c0 .64-.22 1.17-.67 1.6-.46.4-1 .62-1.65.62h-40.65zm73.63 0c-.65 0-1.18-.2-1.6-.63-.42-.42-.63-.95-.63-1.6v-57.33H600.5c-.64 0-1.18-.2-1.6-.63-.42-.4-.63-.94-.63-1.6v-3.77c0-.7.2-1.28.63-1.7.42-.42.96-.63 1.6-.63h46.56c.72 0 1.26.2 1.65.63.4.42.6 1 .6 1.7v3.78c0 .66-.22 1.2-.64 1.6-.42.43-.95.64-1.6.64h-18.62v57.33c0 .65-.23 1.18-.68 1.6-.45.42-1 .63-1.65.63h-4.64zm34.24 0c-.52 0-.97-.2-1.36-.58-.4-.4-.58-.84-.58-1.36l.2-1.07L678 147.12c.52-1.42 1.56-2.13 3.1-2.13h6.22c1.55 0 2.6.7 3.1 2.13l24.06 62.76.2 1.06c0 .52-.22.97-.64 1.36-.42.4-.9.58-1.4.58h-4.56c-.65 0-1.18-.18-1.6-.53-.42-.36-.7-.73-.83-1.12l-5.43-13.97h-32.1l-5.34 13.97c-.52 1.1-1.33 1.65-2.43 1.65h-4.65zm15.23-23.67h26.57l-13.28-34.82-13.3 34.83z"/></g></g></g></svg>