<?xml version="1.0" encoding="UTF-8"?>
<svg width="223px" height="39px" viewBox="0 0 223 39" version="1.1" xmlns="http://www.w3.org/2000/svg" xmlns:xlink="http://www.w3.org/1999/xlink">
    <!-- Generator: Sketch 57.1 (83088) - https://sketch.com -->
    <title>plecatim-logo-light@3x</title>
    <desc>Created with Sketch.</desc>
    <g id="Page-1" stroke="none" stroke-width="1" fill="none" fill-rule="evenodd">
        <g id="Desktop" transform="translate(-103.000000, -215.000000)" fill="#FFFFFF" fill-rule="nonzero">
            <path d="M103.432,216.6 L116.9,216.6 C125.064,216.6 129.796,220.708 129.796,227.832 C129.796,235.008 125.168,239.116 117.316,239.116 L112.792,239.116 C112.012,239.116 111.648,239.064 111.336,238.856 L111.232,238.96 C111.388,239.22 111.492,239.792 111.492,240.52 L111.492,253 L103.432,253 L103.432,216.6 Z M111.336,223.256 L111.232,223.36 C111.388,223.62 111.492,224.192 111.492,224.92 L111.492,230.744 C111.492,231.472 111.388,232.096 111.232,232.356 L111.336,232.46 C111.648,232.252 112.012,232.2 112.792,232.2 L117.16,232.2 C120.02,232.2 121.84,230.484 121.84,227.832 C121.84,225.18 120.02,223.516 117.16,223.516 L112.792,223.516 C112.012,223.516 111.648,223.464 111.336,223.256 Z M133.02,215.82 L140.872,215.82 L140.872,253 L133.02,253 L133.02,215.82 Z M157.616,228.248 C165,228.248 169.524,232.772 169.524,240.884 L169.524,242.964 L155.276,242.964 C153.924,242.964 153.248,242.912 152.468,242.34 L152.364,242.496 L152.572,243.068 C153.248,245.824 155.276,247.332 158.552,247.332 C161.308,247.332 163.856,246.292 165.52,245.2 L168.12,251.18 C165.208,252.896 162.192,253.78 158.604,253.78 C150.284,253.78 144.876,248.996 144.876,240.936 C144.876,233.032 150.18,228.248 157.616,228.248 Z M157.304,234.072 C154.548,234.072 152.624,235.736 152.26,238.544 L152.364,238.7 C152.676,238.336 153.612,238.232 154.548,238.232 L159.8,238.232 C160.684,238.232 161.464,238.284 161.776,238.648 L161.88,238.544 C161.724,235.58 159.956,234.072 157.304,234.072 Z M185.28,253.78 C177.376,253.78 171.916,248.528 171.916,240.988 C171.916,233.448 177.376,228.196 185.28,228.196 C188.504,228.196 191.26,228.924 193.964,230.536 L190.792,236.828 C189.128,235.788 187.62,235.372 185.644,235.372 C182.212,235.372 179.82,237.66 179.82,240.988 C179.82,244.264 182.212,246.604 185.644,246.604 C187.62,246.604 189.128,246.188 190.792,245.148 L193.964,251.44 C191.26,253.052 188.504,253.78 185.28,253.78 Z M206.496,216.132 L207.276,216.132 L207.276,227.156 C207.276,227.884 207.276,228.612 206.912,229.236 L207.016,229.34 C207.64,228.976 208.368,228.976 209.356,228.976 L212.008,228.976 L212.008,235.58 L209.356,235.58 C208.16,235.58 207.588,235.58 207.016,235.216 L206.912,235.32 C207.276,235.944 207.276,236.724 207.276,238.284 L207.276,253 L199.424,253 L199.424,238.284 C199.424,236.724 199.424,235.944 199.788,235.32 L199.684,235.216 C199.112,235.58 198.54,235.58 197.344,235.58 L195.16,235.58 L195.16,228.976 L197.344,228.976 C198.332,228.976 199.06,228.976 199.684,229.34 L199.788,229.236 C199.424,228.612 199.424,227.832 199.424,227.156 L199.424,220.916 L206.496,216.132 Z M226.152,228.196 C234.42,228.196 237.748,230.952 237.748,237.764 L237.748,253 L229.896,253 C229.896,251.18 230.156,249.672 230.728,248.216 L230.468,248.06 C228.804,251.856 225.892,253.78 222.044,253.78 C216.896,253.78 213.464,250.452 213.464,245.356 C213.464,240.364 216.896,237.14 222.148,237.14 C225.84,237.14 228.648,238.648 230.364,241.612 L230.572,241.508 C230.26,240.572 230.156,239.532 230.156,237.66 C230.156,235.736 228.232,234.54 225.164,234.54 C223.032,234.54 221.316,234.696 217.832,235.32 L216.74,229.08 C219.86,228.508 223.344,228.196 226.152,228.196 Z M225.216,241.768 C223.24,241.768 221.888,243.068 221.888,244.836 C221.888,246.656 223.24,247.904 225.216,247.904 C227.192,247.904 228.596,246.604 228.596,244.836 C228.596,243.068 227.192,241.768 225.216,241.768 Z M259.068,228.196 C264.424,228.196 267.492,231.472 267.492,237.972 L267.492,253 L259.692,253 L259.692,240.156 C259.692,236.724 258.184,235.06 255.636,235.06 C252.672,235.06 250.644,236.828 250.644,241.404 L250.644,253 L242.792,253 L242.792,228.976 L250.54,228.976 C250.54,231.94 250.384,232.928 250.072,234.384 L250.28,234.488 C251.736,230.952 254.232,228.196 259.068,228.196 Z M272.276,216.6 L280.752,216.6 L280.752,225.336 L272.276,225.336 L272.276,216.6 Z M272.588,228.976 L280.44,228.976 L280.44,253 L272.588,253 L272.588,228.976 Z M293.648,253 L285.796,253 L285.796,228.976 L293.492,228.976 C293.492,230.9 293.336,232.096 292.92,233.916 L293.128,234.02 C294.896,230.12 297.236,228.196 301.396,228.196 C305.816,228.196 307.948,230.38 308.936,234.124 L309.144,234.124 C310.444,230.9 312.94,228.196 317.516,228.196 C322.56,228.196 325.94,231.16 325.94,237.764 L325.94,253 L318.088,253 L318.088,240.26 C318.088,236.308 316.476,235.112 314.136,235.112 C311.64,235.112 309.664,236.568 309.664,241.352 L309.664,253 L302.124,253 L302.124,240.156 C302.124,236.308 300.512,235.112 298.172,235.112 C295.676,235.112 293.648,236.568 293.648,241.352 L293.648,253 Z" id="plecatim-logo-light"></path>
        </g>
    </g>
</svg>