<?xml version="1.0" standalone="no"?>
<!DOCTYPE svg PUBLIC "-//W3C//DTD SVG 20010904//EN"
 "http://www.w3.org/TR/2001/REC-SVG-20010904/DTD/svg10.dtd">
<svg version="1.0" xmlns="http://www.w3.org/2000/svg"
 width="1184.000000pt" height="1184.000000pt" viewBox="0 0 1184.000000 1184.000000"
 preserveAspectRatio="xMidYMid meet">
<metadata>
Created by potrace 1.11, written by Peter Selinger 2001-2013
</metadata>
<g transform="translate(0.000000,1184.000000) scale(0.100000,-0.100000)"
fill="#000000" stroke="none">
<path d="M1739 11646 c-5 -11 0 -3866 5 -3875 4 -6 4 -11 -1 -11 -10 0 -9
-292 1 -308 4 -7 4 -12 -1 -12 -10 0 -9 -1572 1 -1589 4 -6 4 -11 -1 -11 -10
0 -9 -292 1 -308 4 -7 4 -12 -1 -12 -10 0 -9 -5413 1 -5429 4 -6 3 -11 -3 -11
-5 0 -8 -8 -6 -18 2 -9 4 -27 4 -39 l1 -23 1288 0 1289 0 -2 2098 c-1 1656 -4
2112 -14 2167 -7 39 -14 77 -15 85 -1 8 -5 22 -8 30 -17 46 -38 107 -38 112 0
4 7 14 16 23 12 11 19 13 24 5 11 -18 142 -59 211 -67 83 -9 1930 -9 2072 0
191 12 292 22 292 27 0 0 29 3 65 5 36 3 76 7 90 10 14 3 45 7 70 10 25 3 56
7 70 10 14 3 41 8 60 11 19 2 58 9 85 15 28 6 64 13 80 16 44 8 60 11 60 13 0
1 12 3 26 4 14 2 35 6 45 11 10 4 35 10 54 12 19 2 39 8 46 14 7 5 16 9 20 8
5 -1 12 0 17 1 4 1 12 4 17 5 6 1 11 3 13 4 1 2 13 4 27 7 14 2 52 13 86 24
33 11 70 22 81 24 11 3 49 15 84 29 35 13 98 37 139 52 130 49 431 191 438
207 2 5 8 8 14 8 10 0 257 150 283 172 6 5 53 41 105 80 52 40 111 86 130 103
145 127 274 258 348 354 15 19 37 43 50 54 12 12 22 27 22 34 0 7 5 13 10 13
6 0 10 7 10 15 0 8 4 15 9 15 18 0 261 386 261 415 0 5 7 16 16 26 8 9 17 23
18 31 2 7 22 53 44 101 23 49 42 91 42 94 0 3 6 19 14 36 26 60 41 102 38 110
-1 4 2 7 6 7 5 0 9 6 9 13 0 6 11 48 26 92 21 65 46 150 52 175 0 3 4 14 8 25
3 11 9 31 11 45 8 34 24 110 31 140 3 14 8 36 10 50 2 14 6 36 9 50 7 38 17
101 21 135 5 35 12 85 19 135 17 113 29 344 28 560 -1 175 -7 365 -12 365 -1
0 -3 31 -5 69 -2 37 -7 84 -10 105 -3 20 -10 65 -15 101 -11 79 -20 135 -26
164 -2 11 -7 35 -9 51 -3 17 -15 68 -26 115 -12 47 -23 94 -25 104 -12 61 -89
302 -121 376 -3 8 -7 18 -7 22 -1 3 -4 10 -9 14 -4 4 -7 13 -7 20 0 7 -26 68
-58 136 -32 68 -59 126 -61 130 -1 4 -22 42 -46 83 -25 42 -45 80 -45 85 0 6
-3 10 -8 10 -4 0 -16 17 -27 37 -25 46 -171 248 -234 323 -86 102 -172 190
-298 307 -46 43 -59 54 -123 103 -24 19 -53 43 -64 52 -11 10 -38 30 -60 45
-23 15 -43 30 -46 33 -3 3 -45 31 -95 63 -49 31 -95 61 -102 67 -7 5 -14 10
-16 10 -2 0 -57 30 -123 66 -65 36 -121 65 -124 65 -3 0 -38 16 -79 35 -67 32
-118 55 -131 59 -3 1 -22 9 -43 18 -97 42 -446 157 -477 157 -9 0 -20 3 -24 8
-4 4 -11 7 -14 7 -6 1 -51 10 -97 20 -5 2 -28 7 -50 13 -22 6 -51 13 -65 16
-14 3 -36 7 -50 10 -44 10 -124 25 -160 31 -231 37 -303 46 -445 59 -33 3 -82
8 -110 11 -27 3 -92 7 -144 10 -52 2 -102 7 -112 10 -11 4 -19 1 -19 -6 0 -8
-4 -8 -12 -1 -9 6 -783 10 -2305 10 -1261 0 -2293 -1 -2294 -2z"/>
</g>
</svg>
